<?xml version="1.0" encoding="utf-8"?>
<!-- Generator: Adobe Illustrator 13.0.0, SVG Export Plug-In . SVG Version: 6.00 Build 14948)  -->
<!DOCTYPE svg PUBLIC "-//W3C//DTD SVG 1.0//EN" "http://www.w3.org/TR/2001/REC-SVG-20010904/DTD/svg10.dtd">
<svg version="1.0"
	 id="svg2233" xmlns:cc="http://web.resource.org/cc/" xmlns:rdf="http://www.w3.org/1999/02/22-rdf-syntax-ns#" xmlns:svg="http://www.w3.org/2000/svg" xmlns:sodipodi="http://sodipodi.sourceforge.net/DTD/sodipodi-0.dtd" xmlns:inkscape="http://www.inkscape.org/namespaces/inkscape" xmlns:dc="http://purl.org/dc/elements/1.1/" inkscape:output_extension="org.inkscape.output.svg.inkscape" sodipodi:version="0.32" sodipodi:docbase="E:\" sodipodi:docname="Webeleinenstek2.svg" inkscape:version="0.45.1"
	 xmlns="http://www.w3.org/2000/svg" xmlns:xlink="http://www.w3.org/1999/xlink" x="0px" y="0px" width="400px" height="300px"
	 viewBox="0 0 400 300" enable-background="new 0 0 400 300" xml:space="preserve">
<sodipodi:namedview  height="300px" width="400px" borderopacity="1.0" inkscape:cy="145.65024" objecttolerance="10.0" gridtolerance="10.0" inkscape:cx="176.20136" guidetolerance="10.0" inkscape:zoom="2.5148986" pagecolor="#ffffff" bordercolor="#666666" id="base" inkscape:current-layer="svg2233" inkscape:window-y="-4" inkscape:window-x="-4" inkscape:window-width="1600" inkscape:pageopacity="0.0" inkscape:pageshadow="2" inkscape:window-height="1140">
	</sodipodi:namedview>
<path id="path2240" fill="none" stroke="#1F1A17" stroke-width="49.0434" d="M96.406,223.22c0,29.013,40.24,62.171,96.576,62.171
	s96.576-33.158,96.576-62.171"/>
<path id="path2242" fill="none" stroke="#838281" stroke-width="34.3304" d="M96.406,223.22c0,29.013,40.24,62.171,96.576,62.171
	s96.576-33.158,96.576-62.171"/>
<path id="path2244" sodipodi:nodetypes="csc" fill="none" stroke="#1F1A17" stroke-width="49.0434" d="M96.406,65.722
	c0-29.013,40.24-62.17,96.576-62.17s96.974,34.748,96.974,63.761"/>
<path id="path2246" sodipodi:nodetypes="csc" fill="none" stroke="#838281" stroke-width="34.3304" d="M96.406,65.722
	c0-29.013,40.24-62.17,96.576-62.17s96.576,33.952,96.576,62.966"/>
<ellipse id="ellipse2248" sodipodi:cx="93" sodipodi:cy="212" sodipodi:rx="14" sodipodi:ry="29" fill="#DEDEDD" stroke="#1F1A17" stroke-width="0.5326" stroke-linecap="round" stroke-linejoin="round" cx="192.983" cy="-1.746" rx="77.798" ry="38.552">
</ellipse>
<path id="path2250" fill="#DEDEDD" stroke="#1F1A17" stroke-width="2.046" stroke-linecap="round" stroke-linejoin="round" d="
	M115.185,303.084c0,18.778,34.875,37.558,77.798,37.558s77.798-18.779,77.798-37.558V-2.741c0,21.461-34.875,40.24-77.798,40.24
	s-77.798-18.779-77.798-40.24V303.084z"/>
<path id="path2252" sodipodi:nodetypes="ccc" fill="none" stroke="#1F1A17" stroke-width="49.0434" d="M60.089,165.194h55.096
	c40.24,0,174.374,2.024,174.374,60.05"/>
<path id="path2254" sodipodi:nodetypes="ccc" fill="none" stroke="#838281" stroke-width="34.3304" d="M60.089,166.604l55.494-0.615
	c40.24,0,173.976,1.229,173.976,59.255"/>
<path id="path2256" sodipodi:nodetypes="ccc" fill="none" stroke="#1F1A17" stroke-width="49.0434" d="M336.214,123.133
	l-65.434,0.614c-40.24,0-173.977-1.987-173.977-60.014"/>
<path id="path2258" sodipodi:nodetypes="ccc" fill="none" stroke="#838281" stroke-width="34.3304" d="M336.214,123.133
	l-65.434,0.614c-40.24,0-174.374-3.578-174.374-61.604"/>
<path id="path2260" fill="none" stroke="#1F1A17" stroke-width="49.0434" d="M192.983,144.471
	c48.288-20.724,96.576-41.446,96.576-78.749"/>
<path id="path2262" fill="none" stroke="#838281" stroke-width="34.3304" d="M192.983,144.471
	c48.288-20.724,96.576-41.446,96.576-78.749"/>
<path id="path2264" sodipodi:nodetypes="cc" fill="none" stroke="#1F1A17" stroke-width="49.0434" d="M96.406,224.811
	c0-37.302,48.288-59.616,96.576-80.34"/>
<path id="path2266" sodipodi:nodetypes="cc" fill="none" stroke="#838281" stroke-width="34.3304" d="M96.804,225.606
	c0-37.303,47.891-60.412,96.179-81.136"/>
</svg>
