<?xml version="1.0" encoding="UTF-8" standalone="no"?>
<!-- Created with Inkscape (http://www.inkscape.org/) -->

<svg
   xmlns:dc="http://purl.org/dc/elements/1.1/"
   xmlns:cc="http://creativecommons.org/ns#"
   xmlns:rdf="http://www.w3.org/1999/02/22-rdf-syntax-ns#"
   xmlns:svg="http://www.w3.org/2000/svg"
   xmlns="http://www.w3.org/2000/svg"
   xmlns:sodipodi="http://sodipodi.sourceforge.net/DTD/sodipodi-0.dtd"
   xmlns:inkscape="http://www.inkscape.org/namespaces/inkscape"
   id="svg2"
   version="1.1"
   inkscape:version="0.48.2 r9819"
   width="600"
   height="350"
   xml:space="preserve"
   sodipodi:docname="double sheet bend.svg"><metadata
     id="metadata8"><rdf:RDF><cc:Work
         rdf:about=""><dc:format>image/svg+xml</dc:format><dc:type
           rdf:resource="http://purl.org/dc/dcmitype/StillImage" /><dc:title /></cc:Work></rdf:RDF></metadata><defs
     id="defs6" /><sodipodi:namedview
     pagecolor="#ffffff"
     bordercolor="#666666"
     borderopacity="1"
     objecttolerance="10"
     gridtolerance="10"
     guidetolerance="10"
     inkscape:pageopacity="0"
     inkscape:pageshadow="2"
     inkscape:window-width="1280"
     inkscape:window-height="750"
     id="namedview4"
     showgrid="false"
     inkscape:zoom="1.5171429"
     inkscape:cx="300"
     inkscape:cy="175"
     inkscape:window-x="-8"
     inkscape:window-y="-8"
     inkscape:window-maximized="1"
     inkscape:current-layer="g10" /><g
     id="g10"
     inkscape:groupmode="layer"
     inkscape:label="doppelter schotstek"
     transform="matrix(1.25,0,0,-1.25,0,350)"><g
       id="g12"
       transform="matrix(0.61238448,0,0,0.61238448,-4.953995,-6.9717747)"><path
         style="fill:#333333;fill-opacity:1;fill-rule:evenodd;stroke:none"
         d="M 413.5 34.625 L 405.46875 35.40625 L 398.65625 37.375 C 393.15474 35.281411 387.62651 35.281411 382.125 37.375 L 366.625 44.96875 C 359.03296 46.508897 353.31817 48.935065 349.6875 52.34375 L 343.28125 61.59375 C 338.66081 63.901674 331.41779 70.048483 321.625 80.0625 C 310.95037 90.737892 305.21158 98.459304 304.21875 102.96875 C 300.69984 104.17974 297.84224 106.032 295.53125 108.34375 L 290.375 115.5 C 286.30264 121.65982 280.89829 125.50511 274.40625 127.15625 C 263.95285 129.68846 251.75739 130.67462 237.78125 130.125 L 209.9375 129.25 C 192.6606 125.94925 178.88843 124.85398 168.65625 125.84375 L 161.625 123.09375 L 151.15625 121.65625 L 103.84375 114.96875 C 81.507026 111.99639 66.560787 108.80399 58.96875 105.28125 C 55.889222 105.72064 52.675752 107.01799 49.375 109.21875 C 44.533335 114.39187 41.463464 120.99735 40.03125 129.25 C 38.823322 136.62081 39.144879 143.8786 40.90625 151.03125 C 41.56686 154.00361 42.892405 156.20985 44.875 157.75 L 49.5 160.84375 L 83.5 167.21875 C 97.036759 169.74866 108.02919 171.18809 116.5 171.40625 C 125.63525 173.71724 137.5195 175.57332 152.15625 176.78125 L 187.59375 177.90625 C 190.34489 179.55663 193.64887 180.76041 197.5 181.53125 L 208.71875 181.09375 C 214.66041 182.74413 220.81987 183.62253 227.09375 183.84375 L 248.4375 184.0625 L 262.09375 184.9375 C 253.84034 186.47765 241.30379 187.46686 224.6875 187.90625 C 208.73182 188.23847 194.86666 188.0216 183.3125 187.25 L 170.875 187.90625 L 158.53125 188.34375 C 155.66988 189.55551 150.40454 189.55551 142.8125 188.34375 C 136.31816 187.35475 131.34619 188.34014 127.9375 191.3125 C 122.98561 188.78335 110.35719 188.78335 90 191.3125 C 83.287501 190.76288 74.025388 190.54526 62.25 190.65625 L 42.21875 191 C 31.325196 192.53938 25.612881 198.79224 25.0625 209.90625 C 24.841276 213.64715 25.180666 218.17199 26.0625 223.5625 L 28.03125 234.25 C 29.90285 244.04279 33.637496 249.07709 39.25 249.40625 L 48.28125 248.21875 L 59.625 246.34375 L 106.8125 247.875 C 132.6712 247.54584 149.42444 246.34224 156.90625 244.03125 C 161.74715 246.12101 167.22936 246.56875 173.28125 245.46875 L 187.375 241.71875 C 191.00491 242.26913 198.81895 242.26913 210.8125 241.71875 L 236.78125 239.0625 C 240.30399 239.72311 247.77558 239.83222 259.21875 239.5 C 272.42329 239.17161 281.33201 238.19887 285.84375 236.4375 C 290.46419 237.86665 297.30549 238.75059 306.21875 238.96875 L 325.59375 237.875 C 334.06456 235.0167 355.40266 233.5625 389.625 233.5625 L 411.3125 237.21875 C 422.31628 239.30851 431.65549 239.94433 439.46875 239.0625 L 448.28125 239.40625 L 455.65625 239.75 C 461.26875 239.52878 467.85947 237.10549 475.5625 232.59375 C 481.39623 231.82215 485.34526 230.92727 487.65625 229.9375 C 491.94753 228.17689 496.70436 224.76381 501.65625 219.59375 C 506.27593 215.96078 509.46044 212.67387 511.21875 209.8125 C 512.53997 207.72197 514.29924 203.52311 516.5 197.25 C 521.67006 191.6375 524.5409 181.19884 525.3125 166.125 C 525.86288 153.47084 525.3091 144.45625 523.4375 138.84375 C 523.32651 131.6911 522.97388 126.84241 522.3125 124.3125 C 521.32273 120.24014 518.92764 116.59925 515.1875 113.1875 C 515.07651 106.58523 513.21024 100.54753 509.6875 95.15625 L 498.21875 78.96875 C 491.0661 71.265719 484.91988 66.528616 479.96875 64.65625 L 465.78125 51.46875 C 457.96799 45.305866 450.89753 42.540896 444.40625 43.3125 C 440.66535 40.121977 435.49375 37.92974 428.78125 36.71875 L 413.5 34.625 z M 416.3125 91.09375 C 418.70752 91.078209 420.86986 91.537169 422.84375 92.5 C 432.41838 95.362132 440.35189 99.330121 446.625 104.28125 C 447.39354 106.15362 449.27764 108.12651 452.25 110.4375 C 454.66892 112.30604 456.19962 114.96573 456.75 118.15625 L 466.21875 136.3125 C 467.65096 156.23031 466.41611 168.76497 462.34375 174.15625 C 458.38162 177.23884 455.54262 179.1034 453.78125 179.875 L 446.1875 180.75 C 442.22537 180.97122 436.28201 180.86288 428.46875 180.3125 L 412.28125 179.4375 C 403.91837 176.13598 382.3494 175.81136 347.46875 178.5625 C 345.48692 177.57273 341.0852 177.13901 334.375 177.25 C 327.22235 177.35717 322.2841 178.00529 319.3125 179.4375 L 291.46875 180.75 C 296.86003 178.65947 305.55494 173.81079 317.4375 166.21875 C 330.75304 157.74488 338.68884 151.25927 341.21875 146.96875 C 345.84149 144.98616 349.46702 142.2555 352 138.84375 L 356.84375 130.25 L 371.34375 117.375 C 379.70739 110.33334 385.86685 104.26687 389.71875 99.09375 C 392.14073 98.986583 394.88846 98.33599 397.96875 97.125 L 406.03125 93.59375 C 409.80574 91.923519 413.23319 91.113732 416.3125 91.09375 z "
         transform="matrix(1.3063688,0,0,-1.3063688,8.0896808,468.61373)"
         id="path14" /><path
         d="m 672.473,324.336 -20.125,1.008 -20.41,2.441 -16.247,0.434 c -7.043,0.429 -12.218,2.011 -15.668,4.742 8.196,4.168 17.969,7.332 29.325,9.633 l 29.757,5.031 c 3.879,-1.727 7.188,-5.031 9.918,-9.777 2.875,-4.887 4.024,-9.344 3.45,-13.512"
         style="fill:#ffffff;fill-opacity:1;fill-rule:evenodd;stroke:none"
         id="path16"
         inkscape:connector-curvature="0" /><path
         d="m 585.219,345.613 c 3.015,0.285 6.179,1.438 9.199,3.45 4.168,1.437 8.91,4.457 14.52,9.054 l 13.367,10.781 c 5.175,3.45 9.773,5.176 13.656,5.176 5.031,-0.144 9.918,-2.875 14.949,-8.336 l 2.59,-4.601 c 1.004,-1.867 1.293,-3.449 0.859,-5.032 -18.828,-3.882 -33.347,-7.761 -43.699,-11.5 -6.898,-4.457 -12.504,-6.179 -16.961,-4.886 -4.168,1.004 -7.043,3.019 -8.48,5.894"
         style="fill:#ffffff;fill-opacity:1;fill-rule:evenodd;stroke:none"
         id="path18"
         inkscape:connector-curvature="0" /><path
         d="m 684.836,292.855 -32.918,10.063 c -13.371,3.883 -24.871,6.18 -34.789,6.898 l -4.598,4.028 c -1.871,1.582 -2.301,3.594 -1.297,6.035 4.602,-1.438 11.645,-2.012 21.278,-1.723 l 23.144,0 c 8.481,-0.574 15.094,-2.445 19.547,-5.75 5.61,-4.168 8.77,-10.636 9.633,-19.551"
         style="fill:#ffffff;fill-opacity:1;fill-rule:evenodd;stroke:none"
         id="path20"
         inkscape:connector-curvature="0" /><path
         d="m 600.598,383.563 c 5.32,5.175 10.781,7.617 16.386,7.332 l 5.75,-4.602 5.321,-4.742 c -4.024,-1.871 -8.914,-5.176 -14.52,-9.922 L 599.16,360.707 c -11.5,-8.34 -22.137,-11.07 -32.055,-8.051 11.211,9.344 17.825,15.379 19.836,18.114 2.157,1.293 4.457,3.16 7.188,5.89 l 6.469,6.903"
         style="fill:#ffffff;fill-opacity:1;fill-rule:evenodd;stroke:none"
         id="path22"
         inkscape:connector-curvature="0" /><path
         d="m 686.992,259.074 c -6.469,4.313 -16.676,10.348 -30.906,17.969 -14.231,7.906 -24.867,14.086 -31.914,18.687 l -3.449,6.18 c 26.019,-3.879 46,-9.629 59.8,-17.535 3.45,-3.309 5.75,-7.477 7.043,-12.508 1.153,-4.887 1.008,-9.199 -0.574,-12.793"
         style="fill:#ffffff;fill-opacity:1;fill-rule:evenodd;stroke:none"
         id="path24"
         inkscape:connector-curvature="0" /><path
         d="m 605.199,397.504 c -6.758,-4.742 -14.375,-11.356 -22.855,-19.836 l -21.422,-20.988 -12.359,-1.582 c 2.296,2.59 7.906,11.07 16.816,25.3 6.902,11.071 13.801,18.832 20.699,23.434 10.352,1.004 16.676,-1.008 19.121,-6.328"
         style="fill:#ffffff;fill-opacity:1;fill-rule:evenodd;stroke:none"
         id="path26"
         inkscape:connector-curvature="0" /><path
         d="m 655.941,268.992 c 13.657,-7.332 22.856,-13.082 27.887,-17.394 4.313,-7.043 3.453,-15.813 -2.441,-26.16 l -20.989,21.703 c -8.914,9.488 -16.96,16.101 -24.293,19.695 -4.457,2.445 -7.042,4.457 -8.05,6.324 -0.864,1.582 -1.008,4.313 -0.289,8.195 5.32,-1.007 14.664,-5.175 28.175,-12.363"
         style="fill:#ffffff;fill-opacity:1;fill-rule:evenodd;stroke:none"
         id="path28"
         inkscape:connector-curvature="0" /><path
         d="m 578.891,409.293 c -13.942,-14.23 -26.161,-31.051 -36.797,-50.168 -1.871,-2.445 -5.031,-4.887 -9.489,-7.477 l -11.355,-6.324 7.762,19.406 c 3.304,8.196 6.324,14.665 9.054,19.696 8.196,14.66 18.258,23.574 30.188,26.594 l 10.637,-1.727"
         style="fill:#ffffff;fill-opacity:1;fill-rule:evenodd;stroke:none"
         id="path30"
         inkscape:connector-curvature="0" /><path
         d="m 649.617,247.141 10.781,-11.786 c 4.313,-5.031 7.477,-9.488 9.633,-13.226 5.891,-11.066 4.313,-20.844 -4.601,-29.469 -4.313,7.621 -6.899,13.227 -7.907,16.965 l -9.632,14.086 -11.786,14.519 c -8.914,11.356 -12.218,18.833 -10.062,22.711 9.629,-3.738 17.535,-8.336 23.574,-13.8"
         style="fill:#ffffff;fill-opacity:1;fill-rule:evenodd;stroke:none"
         id="path32"
         inkscape:connector-curvature="0" /><path
         d="m 533.469,391.035 c -10.926,-23.43 -22.571,-44.273 -35.078,-62.816 2.156,5.605 4.457,14.66 6.757,27.023 2.586,13.946 4.743,23.574 6.469,28.895 6.613,21.562 19.406,32.199 38.383,31.769 0.574,-4.027 -1.297,-8.48 -5.609,-13.226 l -10.922,-11.645"
         style="fill:#ffffff;fill-opacity:1;fill-rule:evenodd;stroke:none"
         id="path34"
         inkscape:connector-curvature="0" /><path
         d="m 627.191,220.262 c -4.023,9.918 -6.324,17.824 -6.753,23.718 21.703,-20.843 33.347,-39.964 34.929,-57.214 -2.156,-3.305 -6.324,-6.754 -12.648,-10.063 -6.469,-3.305 -9.489,-3.16 -9.059,0.719 l 1.293,7.906 -0.574,11.5 c -0.574,5.895 -3.02,13.656 -7.188,23.434"
         style="fill:#ffffff;fill-opacity:1;fill-rule:evenodd;stroke:none"
         id="path38"
         inkscape:connector-curvature="0" /><path
         d="m 506.012,387.586 -7.332,-27.023 c -5.606,-22.571 -13.227,-39.532 -22.571,-50.887 l 5.465,45.566 c 2.297,17.539 5.75,32.344 10.203,44.563 5.465,9.343 11.645,14.09 18.403,14.519 l 6.324,-0.289 c -4.024,-7.472 -7.477,-16.242 -10.492,-26.449"
         style="fill:#ffffff;fill-opacity:1;fill-rule:evenodd;stroke:none"
         id="path40"
         inkscape:connector-curvature="0" /><path
         d="m 608.219,162.617 -6.903,0.719 c 10.207,26.019 13.227,48.445 9.344,67.418 3.164,-1.867 5.895,-5.031 8.051,-9.629 l 5.461,-13.656 c 4.746,-19.696 2.156,-33.352 -7.473,-40.828 -3.019,-2.586 -5.894,-3.879 -8.48,-4.024"
         style="fill:#ffffff;fill-opacity:1;fill-rule:evenodd;stroke:none"
         id="path42"
         inkscape:connector-curvature="0" /><path
         d="m 592.547,167.938 c -5.172,-4.313 -13.367,-5.61 -24.723,-4.028 0.285,2.012 1.867,4.887 4.598,8.481 3.019,3.593 4.746,6.328 5.176,8.195 2.156,3.019 5.75,10.352 10.636,21.992 3.594,8.77 8.34,15.238 13.946,19.121 4.168,-15.383 0.863,-33.207 -9.633,-53.761"
         style="fill:#ffffff;fill-opacity:1;fill-rule:evenodd;stroke:none"
         id="path44"
         inkscape:connector-curvature="0" /><path
         d="m 457.137,366.168 c 3.015,10.492 6.035,18.113 8.91,22.57 5.031,8.192 11.355,12.649 18.976,13.078 -4.168,-11.64 -7.906,-30.328 -11.214,-56.203 -3.161,-24.726 -7.473,-43.558 -12.938,-56.351 -2.297,-1.438 -4.023,-1.727 -5.316,-1.008 2.73,11.07 3.879,24.297 3.449,39.391 l -1.867,38.523"
         style="fill:#ffffff;fill-opacity:1;fill-rule:evenodd;stroke:none"
         id="path46"
         inkscape:connector-curvature="0" /><path
         d="m 443.48,370.48 c 2.157,3.02 4.743,4.887 7.907,5.895 -1.008,-6.902 -1.297,-15.383 -1.153,-25.301 l 1.293,-25.73 c 0.719,-20.844 -1.722,-37.52 -7.328,-49.739 -3.594,-3.882 -6.613,-4.886 -9.058,-3.308 0.863,6.613 1.152,16.391 0.718,29.473 -0.429,12.648 -0.144,22.421 0.864,29.468 -1.868,8.481 -1.582,18.973 1.148,31.481 l 5.609,7.761"
         style="fill:#ffffff;fill-opacity:1;fill-rule:evenodd;stroke:none"
         id="path48"
         inkscape:connector-curvature="0" /><path
         d="m 378.074,262.523 c -1.582,-13.656 -5.609,-22.136 -11.933,-25.445 -3.161,-2.156 -10.348,-3.16 -21.563,-2.875 6.613,7.332 12.219,17.11 16.965,29.039 1.723,4.457 5.316,15.238 10.922,32.488 l 3.883,2.157 c 0.863,0.429 2.445,0.429 4.742,0 l -1.578,-17.395 -1.438,-17.969"
         style="fill:#ffffff;fill-opacity:1;fill-rule:evenodd;stroke:none"
         id="path50"
         inkscape:connector-curvature="0" /><path
         d="m 353.203,261.375 c -5.461,-11.645 -10.926,-19.84 -16.531,-24.727 -4.168,-2.011 -10.492,-2.445 -18.688,-1.293 5.75,4.743 14.231,17.536 25.59,38.094 4.598,8.336 8.192,13.942 10.637,16.961 3.594,4.313 6.613,5.61 9.055,4.028 -1.149,-10.208 -4.457,-21.278 -10.063,-33.063"
         style="fill:#ffffff;fill-opacity:1;fill-rule:evenodd;stroke:none"
         id="path52"
         inkscape:connector-curvature="0" /><path
         d="m 329.629,262.953 c -6.039,-11.211 -12.508,-19.262 -19.406,-24.148 -5.895,-4.168 -11.789,-4.313 -17.825,-0.575 4.598,4.743 11.211,12.649 19.692,23.575 l 21.422,27.027 10.492,2.441 -14.375,-28.32"
         style="fill:#ffffff;fill-opacity:1;fill-rule:evenodd;stroke:none"
         id="path54"
         inkscape:connector-curvature="0" /><path
         d="m 297.285,255.625 c -11.211,-13.516 -22.57,-18.687 -34.211,-15.672 5.317,4.457 13.223,12.938 23.719,25.59 9.055,11.066 17.391,19.262 24.867,24.293 3.305,2.73 7.617,3.309 12.649,1.437 -3.45,-3.593 -7.907,-9.199 -13.512,-16.96 l -13.512,-18.688"
         style="fill:#ffffff;fill-opacity:1;fill-rule:evenodd;stroke:none"
         id="path56"
         inkscape:connector-curvature="0" /><path
         d="m 348.172,218.25 c -3.594,-3.883 -7.473,-9.488 -11.356,-16.965 l -9.773,-18.398 c -8.484,-14.09 -19.266,-21.133 -32.344,-20.989 l 13.078,24.868 c 5.61,10.496 10.496,18.832 14.953,25.015 l 10.922,6.18 c 5.032,1.867 9.778,2.012 14.52,0.289"
         style="fill:#ffffff;fill-opacity:1;fill-rule:evenodd;stroke:none"
         id="path58"
         inkscape:connector-curvature="0" /><path
         d="m 270.836,258.066 c -11.789,-12.937 -24.438,-18.113 -38.094,-15.523 6.18,4.168 14.805,12.793 26.16,25.875 10.063,11.93 19.407,20.125 28.032,24.582 l 11.789,-0.719 c -3.594,-3.449 -8.336,-8.914 -13.946,-16.531 -6.754,-8.77 -11.355,-14.664 -13.941,-17.684"
         style="fill:#ffffff;fill-opacity:1;fill-rule:evenodd;stroke:none"
         id="path60"
         inkscape:connector-curvature="0" /><path
         d="m 208.16,245.418 c 3.449,3.305 7.906,8.625 13.367,16.098 l 13.657,17.394 c 11.359,12.797 23.718,17.828 37.234,15.383 -4.313,-3.305 -9.059,-7.762 -14.09,-13.371 L 245.535,266.547 C 235.184,254.906 224.98,247.285 214.773,243.691 l -3.738,0.289 c -1.582,-0.433 -2.445,0.145 -2.875,1.438"
         style="fill:#ffffff;fill-opacity:1;fill-rule:evenodd;stroke:none"
         id="path62"
         inkscape:connector-curvature="0" /><path
         d="m 294.699,178.719 c -9.058,-14.809 -21.422,-21.852 -36.801,-20.844 3.879,5.172 9.629,14.375 16.961,27.453 6.614,11.5 12.793,20.27 18.403,26.309 2.011,2.73 5.316,4.886 9.918,6.324 l 13.511,-0.43 c -3.593,-4.172 -7.332,-10.496 -11.5,-18.832 l -10.492,-19.98"
         style="fill:#ffffff;fill-opacity:1;fill-rule:evenodd;stroke:none"
         id="path64"
         inkscape:connector-curvature="0" /><path
         d="m 215.203,265.398 c -10.781,-13.367 -19.262,-19.98 -25.586,-19.835 l -10.207,2.875 c 2.156,2.156 6.035,6.898 11.645,14.23 l 14.086,17.25 c 12.937,13.656 25.73,19.406 38.527,16.961 -4.313,-3.305 -9.203,-8.047 -14.664,-14.52 l -13.801,-16.961"
         style="fill:#ffffff;fill-opacity:1;fill-rule:evenodd;stroke:none"
         id="path66"
         inkscape:connector-curvature="0" /><path
         d="m 238.922,173.973 11.933,19.55 c 10.063,14.52 22.567,21.993 37.516,22.426 -5.75,-3.594 -10.922,-9.199 -15.523,-17.105 L 261.922,178.43 c -4.313,-7.762 -8.91,-13.367 -13.942,-16.961 -6.183,-4.457 -14.089,-6.328 -23.718,-5.75 4.742,4.453 9.629,10.492 14.66,18.254"
         style="fill:#ffffff;fill-opacity:1;fill-rule:evenodd;stroke:none"
         id="path68"
         inkscape:connector-curvature="0" /><path
         d="m 150.516,250.879 12.937,13.512 c 7.188,7.476 12.219,13.656 14.949,18.402 14.235,14.949 26.883,20.988 38.094,17.969 -4.887,-3.164 -10.062,-8.051 -15.523,-14.809 l -13.801,-17.39 c -11.356,-13.372 -23.574,-19.266 -36.656,-17.684"
         style="fill:#ffffff;fill-opacity:1;fill-rule:evenodd;stroke:none"
         id="path70"
         inkscape:connector-curvature="0" /><path
         d="m 234.609,212.5 c 9.059,4.887 16.387,5.316 22.282,1.148 -2.731,-1.867 -5.317,-4.312 -7.762,-7.476 l -15.094,-23.141 c -4.023,-6.613 -7.476,-11.789 -10.492,-15.383 -9.344,-11.07 -19.984,-15.668 -32.203,-13.8 4.89,6.039 12.363,16.531 22.281,31.48 7.906,11.934 14.953,20.988 20.988,27.172"
         style="fill:#ffffff;fill-opacity:1;fill-rule:evenodd;stroke:none"
         id="path72"
         inkscape:connector-curvature="0" /><path
         d="m 155.258,265.828 c -11.067,-11.785 -22.422,-13.941 -34.356,-6.609 l 2.301,-0.719 c 5.176,2.73 10.637,7.473 16.387,14.086 l 14.23,17.25 c 5.61,6.324 10.926,10.637 15.957,12.937 6.614,3.02 13.946,3.309 21.996,0.864 l -13.8,-10.782 c -2.446,-1.582 -6.039,-5.464 -10.637,-11.5 -5.75,-7.906 -9.777,-13.082 -12.078,-15.527"
         style="fill:#ffffff;fill-opacity:1;fill-rule:evenodd;stroke:none"
         id="path74"
         inkscape:connector-curvature="0" /><path
         d="m 198.242,176.848 c -12.363,-17.395 -21.707,-25.301 -27.89,-24.004 l -11.356,1.722 c 5.895,4.168 11.645,10.352 17.25,18.258 l 13.082,20.699 c 4.887,7.618 9.488,13.082 13.945,16.243 5.895,4.457 12.504,6.468 19.981,5.894 l -25.012,-38.812"
         style="fill:#ffffff;fill-opacity:1;fill-rule:evenodd;stroke:none"
         id="path76"
         inkscape:connector-curvature="0" /><path
         d="m 136.859,281.785 c 1.149,2.445 2.157,7.477 3.164,14.953 0.719,5.891 2.442,10.348 5.317,13.223 l 19.695,-0.285 -14.23,-13.801 -13.946,-14.09"
         style="fill:#ffffff;fill-opacity:1;fill-rule:evenodd;stroke:none"
         id="path78"
         inkscape:connector-curvature="0" /><path
         d="m 133.121,304.93 -4.168,-16.098 c -1.867,-7.047 -4.168,-12.223 -6.613,-15.527 l 9.199,34.215 1.582,-2.59"
         style="fill:#ffffff;fill-opacity:1;fill-rule:evenodd;stroke:none"
         id="path80"
         inkscape:connector-curvature="0" /><path
         d="m 115.727,281.211 c 1.007,12.219 3.738,21.996 8.05,29.469 -0.718,-9.918 -3.449,-19.692 -8.05,-29.469"
         style="fill:#ffffff;fill-opacity:1;fill-rule:evenodd;stroke:none"
         id="path82"
         inkscape:connector-curvature="0" /><path
         d="m 71.164,306.223 c 3.02,7.332 8.484,12.797 16.531,16.246 l 17.25,-4.028 C 85.684,306.656 73.18,294.582 67.43,282.219 c -0.145,10.062 1.148,18.113 3.734,24.004"
         style="fill:#ffffff;fill-opacity:1;fill-rule:evenodd;stroke:none"
         id="path84"
         inkscape:connector-curvature="0" /><path
         d="M 73.609,274.023 C 83.672,293 96.32,305.648 111.703,311.832 l 1.727,-3.019 c -5.032,-14.52 -8.196,-23.145 -9.778,-25.875 -5.031,-9.344 -11.929,-15.672 -20.699,-18.688 -7.043,1.723 -10.207,5.031 -9.344,9.773"
         style="fill:#ffffff;fill-opacity:1;fill-rule:evenodd;stroke:none"
         id="path86"
         inkscape:connector-curvature="0" /><path
         d="m 54.348,156.004 c -0.575,10.496 2.586,21.707 9.343,33.351 5.176,9.055 10.926,15.958 17.106,20.989 4.742,2.875 10.207,3.015 16.101,0.285 C 89.422,204.305 81.805,195.391 74.184,183.75 64.84,169.516 58.227,160.316 54.348,156.004"
         style="fill:#ffffff;fill-opacity:1;fill-rule:evenodd;stroke:none"
         id="path88"
         inkscape:connector-curvature="0" /><path
         d="m 105.234,263.242 c -3.304,-2.156 -7.043,-2.445 -11.07,-0.719 l 11.5,10.637 c 1.582,-1.293 2.016,-2.875 1.297,-4.887 l -1.727,-5.031"
         style="fill:#ffffff;fill-opacity:1;fill-rule:evenodd;stroke:none"
         id="path90"
         inkscape:connector-curvature="0" /><path
         d="m 52.191,186.191 c -5.32,7.043 -5.32,13.657 0.145,19.84 l 7.762,4.887 c 2.73,1.004 5.605,1.148 8.625,0.145 -1.008,-3.309 -3.883,-7.333 -8.34,-12.364 -4.453,-5.031 -7.188,-9.199 -8.192,-12.508"
         style="fill:#ffffff;fill-opacity:1;fill-rule:evenodd;stroke:none"
         id="path92"
         inkscape:connector-curvature="0" /><path
         d="m 414.871,337.563 c 3.02,6.613 8.195,10.636 15.527,11.929 -1.293,-6.469 -1.871,-14.23 -1.871,-23.285 l 0.434,-23.289 c 0.144,-18.977 -3.02,-34.07 -9.633,-45.281 l -4.023,-1.727 -4.028,-0.574 c 2.446,8.195 3.309,17.105 2.59,27.023 -1.008,13.661 -1.437,22.286 -1.293,25.59 -1.726,7.906 -1.008,17.68 2.297,29.614"
         style="fill:#ffffff;fill-opacity:1;fill-rule:evenodd;stroke:none"
         id="path94"
         inkscape:connector-curvature="0" /><path
         d="m 405.961,282.938 c 1.293,-15.383 -1.582,-28.465 -8.625,-38.958 l -6.758,-3.308 c -3.879,-1.723 -7.473,-2.297 -10.637,-1.867 l 4.602,16.386 c 0.859,3.164 1.723,8.34 2.586,15.383 l 1.008,18.977 c 0.718,9.344 1.722,15.953 3.015,20.125 4.602,8.48 9.633,13.222 15.094,13.941 -1.578,-6.469 -2.297,-13.656 -2.156,-21.273 l 1.871,-19.406"
         style="fill:#ffffff;fill-opacity:1;fill-rule:evenodd;stroke:none"
         id="path96"
         inkscape:connector-curvature="0" /><path
         d="m 572.855,185.906 c -4.167,-7.047 -8.769,-12.078 -13.511,-14.953 -5.895,-3.449 -13.227,-4.168 -21.852,-2.012 l 15.813,24.293 c 6.758,11.071 12.508,19.551 17.539,25.735 5.89,5.461 14.086,6.609 24.293,3.594 -4.028,-3.309 -8.051,-8.915 -12.219,-16.676 l -10.063,-19.981"
         style="fill:#ffffff;fill-opacity:1;fill-rule:evenodd;stroke:none"
         id="path98"
         inkscape:connector-curvature="0" /><path
         d="m 534.617,187.773 c -11.07,-14.519 -24.293,-20.554 -39.531,-17.968 4.598,4.601 11.644,13.367 20.988,26.449 8.336,11.644 15.524,20.269 21.707,25.73 10.203,5.321 18.254,6.469 24.149,3.454 -4.168,-3.883 -8.77,-9.778 -13.946,-17.969 l -13.367,-19.696"
         style="fill:#cccccc;fill-opacity:1;fill-rule:evenodd;stroke:none"
         id="path100"
         inkscape:connector-curvature="0" /><path
         d="m 503.422,192.66 c -5.176,-8.191 -10.492,-14.086 -15.813,-17.68 -6.898,-4.746 -15.093,-6.468 -24.582,-5.32 4.746,4.168 10.063,10.207 15.813,18.258 l 14.375,20.27 c 12.078,15.378 25.59,22.855 40.683,22.421 -5.894,-3.304 -11.644,-8.91 -16.96,-16.816 L 503.422,192.66"
         style="fill:#ffffff;fill-opacity:1;fill-rule:evenodd;stroke:none"
         id="path102"
         inkscape:connector-curvature="0" /><path
         d="m 431.262,166.641 c 3.879,5.031 9.629,14.375 17.39,28.031 6.614,11.933 12.797,20.844 18.403,26.883 2.441,3.593 7.332,6.179 14.949,7.617 l 17.539,-0.43 c -6.039,-5.894 -12.078,-13.367 -18.258,-22.137 l -13.656,-20.414 c -5.031,-6.753 -9.918,-11.644 -14.949,-14.66 -5.895,-3.593 -13.082,-5.176 -21.418,-4.89"
         style="fill:#ffffff;fill-opacity:1;fill-rule:evenodd;stroke:none"
         id="path104"
         inkscape:connector-curvature="0" /><path
         d="m 419.328,170.234 c -7.332,-4.886 -16.387,-7.043 -27.023,-6.324 4.457,4.313 9.343,10.926 14.66,19.981 l 13.515,22.14 c 5.461,7.907 11.211,13.657 17.106,17.106 7.473,4.312 16.098,5.75 26.019,4.457 -5.609,-3.594 -11.07,-9.344 -16.101,-17.539 l -12.219,-21.992 c -5.031,-8.196 -10.351,-14.235 -15.957,-17.829"
         style="fill:#ffffff;fill-opacity:1;fill-rule:evenodd;stroke:none"
         id="path106"
         inkscape:connector-curvature="0" /><path
         d="M 406.824,201.574 393.453,180.73 c -4.742,-6.613 -9.488,-11.07 -14.375,-13.511 -5.605,-3.02 -12.648,-3.739 -20.844,-2.016 3.594,4.746 9.344,14.09 17.25,28.031 6.469,11.645 12.508,19.985 18.114,25.016 2.445,3.594 7.476,6.035 14.804,7.328 l 17.539,-0.859 c -6.468,-6.328 -12.793,-14.09 -19.117,-23.145"
         style="fill:#ffffff;fill-opacity:1;fill-rule:evenodd;stroke:none"
         id="path108"
         inkscape:connector-curvature="0" /><path
         d="m 347.023,202.293 c 4.457,7.473 9.344,12.793 14.661,15.812 6.757,3.879 15.093,5.317 24.871,4.024 -5.606,-3.594 -10.782,-9.344 -15.528,-16.961 l -11.066,-20.414 c -4.457,-7.617 -9.199,-13.223 -13.945,-16.531 -6.325,-4.598 -14.231,-6.614 -23.864,-5.895 4.457,4.457 9.059,10.926 13.657,19.406 l 11.214,20.559"
         style="fill:#ffffff;fill-opacity:1;fill-rule:evenodd;stroke:none"
         id="path110"
         inkscape:connector-curvature="0" /><path
         d="m 126.367,151.691 c 4.024,5.032 9.918,13.946 17.535,27.028 6.758,11.355 12.938,20.125 18.832,26.015 1.868,2.875 6.039,5.176 12.793,6.758 6.758,1.727 12.219,1.727 16.246,0 -4.027,-3.883 -8.625,-10.062 -13.8,-18.398 l -13.082,-20.27 C 153.82,157.441 141.027,150.398 126.367,151.691"
         style="fill:#ffffff;fill-opacity:1;fill-rule:evenodd;stroke:none"
         id="path112"
         inkscape:connector-curvature="0" /><path
         d="m 132.836,173.973 c -4.602,-7.907 -9.488,-13.512 -14.52,-16.961 -6.468,-4.457 -14.375,-6.039 -23.718,-4.746 4.597,4.312 9.343,10.64 14.086,18.976 l 11.933,20.555 c 4.742,7.187 9.918,12.363 15.379,15.672 6.902,4.023 15.094,5.605 24.438,4.742 -5.606,-3.594 -10.926,-9.344 -15.668,-17.395 l -11.93,-20.843"
         style="fill:#ffffff;fill-opacity:1;fill-rule:evenodd;stroke:none"
         id="path114"
         inkscape:connector-curvature="0" /><path
         d="m 104.227,179.578 c -4.024,-6.469 -7.618,-11.64 -10.637,-15.379 -9.344,-11.07 -19.981,-15.668 -31.91,-13.656 4.742,5.895 12.074,16.242 21.992,31.191 7.906,12.079 15.094,21.133 21.273,27.313 8.914,5.031 16.391,5.32 22.282,1.152 -2.731,-1.871 -5.317,-4.312 -7.762,-7.476 l -15.238,-23.145"
         style="fill:#ffffff;fill-opacity:1;fill-rule:evenodd;stroke:none"
         id="path116"
         inkscape:connector-curvature="0" /><path
         d="m 534.617,187.918 c -11.355,-14.52 -24.582,-20.559 -39.676,-18.113 4.457,4.601 11.356,13.511 20.989,26.593 8.336,11.79 15.668,20.415 21.851,25.731 10.348,5.32 18.399,6.469 24.149,3.449 -4.168,-3.879 -8.77,-9.773 -13.946,-17.969 l -13.367,-19.691"
         style="fill:#ffffff;fill-opacity:1;fill-rule:evenodd;stroke:none"
         id="path118"
         inkscape:connector-curvature="0" /><path
         d="m 261.059,297.457 22.57,-0.578 12.793,-0.719 c 3.883,-0.14 7.043,1.008 9.344,3.164 6.183,5.606 11.933,7.617 17.394,6.039 8.051,-2.3 21.852,-25.879 41.399,-70.871 4.457,-10.207 8.625,-22.855 12.652,-37.664 l 9.629,-38.094 c -1.149,-9.773 4.262,-18.929 20.297,-20.855 15.613,-1.281 20.386,7.344 20.672,18.414 -2.012,9.918 -5.75,23.574 -11.067,40.68 -5.894,18.687 -12.219,35.652 -18.687,50.886 -13.946,33.782 -24.871,55.922 -33.063,66.414 -8.48,10.782 -16.101,18.403 -22.855,22.856 -8.051,5.031 -17.11,7.476 -27.172,7.187 -5.606,-0.14 -11.93,-1.867 -18.688,-5.171 -6.179,-3.02 -11.211,-6.469 -15.093,-10.063 -8.766,-8.484 -15.524,-18.977 -20.125,-31.625"
         style="fill:#333333;fill-opacity:1;fill-rule:evenodd;stroke:none"
         id="path120"
         inkscape:connector-curvature="0" /><path
         d="m 691.016,285.379 c 15.812,4.746 30.621,7.476 44.562,8.34 l 11.645,0.285 c 3.019,0.144 4.746,0.578 5.465,1.152 5.171,4.024 7.328,11.356 6.324,21.992 l -1.727,15.668 c -8.191,4.457 -29.754,1.297 -64.543,-9.773 l -11.929,-4.168 10.203,-33.496"
         style="fill:#333333;fill-opacity:1;fill-rule:evenodd;stroke:none"
         id="path122"
         inkscape:connector-curvature="0" /><path
         d="m 299.297,222.273 -41.399,0.43 -1.293,12.938 41.829,-5.172 0.863,-8.196"
         style="fill:#333333;fill-opacity:1;fill-rule:evenodd;stroke:none"
         id="path124"
         inkscape:connector-curvature="0" /><path
         d="m 397.91,233.629 c -0.719,4.457 5.461,9.777 18.543,15.957 l 1.871,-15.957 -20.414,0"
         style="fill:#333333;fill-opacity:1;fill-rule:evenodd;stroke:none"
         id="path126"
         inkscape:connector-curvature="0" /><path
         d="m 407.828,380.973 c -9.488,-1.868 -16.387,-4.453 -20.699,-8.047 -2.731,-2.156 -5.895,-6.469 -9.488,-12.938 -7.762,-14.519 -8.911,-33.351 -3.45,-56.351 18.543,12.508 27.457,21.418 26.594,26.738 -0.43,3.305 -0.144,5.895 1.008,7.762 l 4.023,4.742 c 4.743,6.184 10.207,6.758 16.676,1.726 7.188,-5.32 14.66,-16.531 22.426,-33.925 3.305,-7.617 6.898,-17.68 10.637,-30.188 l 8.336,-28.894 c 13.656,-43.555 25.3,-75.754 35.074,-96.457 -19.836,-15.668 -49.735,-22.422 -89.555,-20.125 -18.976,1.871 -35.937,5.75 -50.887,11.359 l -21.562,10.063 c -5.176,2.441 -9.918,3.304 -14.09,2.875 l -18.398,-2.875 c -12.219,-1.008 -19.118,-2.016 -20.844,-2.875 l 8.769,-7.188 15.813,-11.934 c 16.816,-11.355 35.504,-19.55 55.918,-24.582 57.355,-14.515 108.676,-8.91 153.957,16.821 13.227,-15.524 26.019,-28.321 38.238,-38.383 8.91,-7.328 19.117,-13.512 30.473,-18.543 l 28.465,-11.066 c 5.605,-2.016 9.773,-2.59 12.793,-1.583 3.019,1.004 5.461,4.024 7.187,9.055 l 2.446,7.477 c 0.429,1.582 0.429,3.449 -0.145,5.605 -0.719,2.731 -7.043,6.469 -18.977,11.5 -15.668,6.613 -28.316,13.512 -37.66,20.844 -15.672,11.93 -27.601,23.43 -35.508,34.789 6.469,5.891 12.364,14.805 17.969,27.023 5.895,13.082 12.508,25.301 19.981,36.657 9.199,14.086 17.25,23.289 24.293,27.601 4.746,2.875 8.914,6.18 12.652,9.774 l -2.445,47.008 c -3.305,-1.583 -5.317,-3.165 -6.325,-4.602 -9.054,-6.039 -16.82,-12.363 -23.144,-18.832 L 570.41,251.023 c -5.75,-6.468 -12.363,-16.82 -19.836,-31.05 l -16.676,-33.207 c -2.3,-4.168 -4.023,-7.907 -5.32,-11.5 -14.519,39.675 -26.738,76.047 -36.367,109.25 -8.195,28.894 -19.121,53.047 -33.063,72.738 -6.902,9.922 -15.093,16.965 -24.726,20.844 -8.625,3.593 -17.535,4.457 -26.594,2.875"
         style="fill:#333333;fill-opacity:1;fill-rule:evenodd;stroke:none"
         id="path128"
         inkscape:connector-curvature="0" /><path
         d="m 283.055,312.691 c -1.153,5.61 0.285,10.352 4.312,13.946 l 6.469,4.601 c -1.293,-5.609 -1.008,-13.945 0.863,-25.015 0.43,-3.305 0.285,-5.317 -0.289,-6.325 -0.719,-1.582 -2.73,-2.3 -6.039,-1.867 l -5.316,14.66"
         style="fill:#ffffff;fill-opacity:1;fill-rule:evenodd;stroke:none"
         id="path130"
         inkscape:connector-curvature="0" /><path
         d="m 274.574,300.473 c -2.015,0.433 -3.453,1.582 -4.172,3.453 2.875,5.316 5.321,9.199 7.332,11.355 0.145,-2.011 0.864,-4.601 2.012,-7.621 1.582,-3.594 2.59,-6.609 3.02,-8.765 l -8.192,1.578"
         style="fill:#ffffff;fill-opacity:1;fill-rule:evenodd;stroke:none"
         id="path132"
         inkscape:connector-curvature="0" /><path
         d="m 364.129,304.355 c -3.738,1.727 -9.055,2.586 -15.813,2.586 l -16.101,-0.574 2.875,-3.594 2.445,-2.3 c 2.301,-1.438 8.481,-3.305 18.543,-5.606 9.059,-2.012 14.949,-4.168 17.539,-6.613 -0.433,6.184 -3.594,11.5 -9.488,16.101"
         style="fill:#ffffff;fill-opacity:1;fill-rule:evenodd;stroke:none"
         id="path134"
         inkscape:connector-curvature="0" /><path
         d="m 348.027,323.043 c -4.597,0 -8.765,-1.008 -12.359,-2.875 -2.59,-1.293 -6.328,-3.883 -11.07,-7.762 3.449,-2.59 8.625,-3.449 15.523,-2.59 8.051,1.008 13.801,0.864 17.25,-0.14 l 3.309,0 -4.457,8.047 c -1.868,3.019 -4.602,4.89 -8.196,5.32"
         style="fill:#ffffff;fill-opacity:1;fill-rule:evenodd;stroke:none"
         id="path136"
         inkscape:connector-curvature="0" /><path
         d="m 326.754,334.832 c -3.305,-2.445 -6.324,-6.328 -9.344,-11.789 l -7.187,-12.938 c 3.164,0.864 8.914,4.313 17.105,10.208 6.902,4.886 12.938,7.187 18.258,6.898 -2.301,2.73 -5.606,5.176 -9.918,7.043 -4.313,1.582 -7.332,1.871 -8.914,0.578"
         style="fill:#ffffff;fill-opacity:1;fill-rule:evenodd;stroke:none"
         id="path138"
         inkscape:connector-curvature="0" /><path
         d="m 299.152,300.188 c 2.875,3.738 6.614,10.207 11.071,19.406 4.312,8.91 7.906,15.094 10.925,18.543 -3.882,0.718 -7.621,0.718 -11.5,0 -4.886,-0.719 -8.339,-2.301 -10.207,-4.887 -1.148,-4.168 -1.582,-9.488 -1.148,-15.957 l 0.859,-17.105"
         style="fill:#ffffff;fill-opacity:1;fill-rule:evenodd;stroke:none"
         id="path140"
         inkscape:connector-curvature="0" /><path
         d="m 468.637,253.609 c 1.148,-2.73 6.035,-5.461 14.804,-8.046 9.918,-2.735 16.676,-5.895 20.414,-9.489 -2.734,9.055 -8.484,14.949 -16.964,17.969 l -10.782,2.875 c -4.168,1.148 -7.472,2.73 -9.918,4.598 0.145,-2.297 0.43,-4.024 1.008,-5.172 l 1.438,-2.735"
         style="fill:#ffffff;fill-opacity:1;fill-rule:evenodd;stroke:none"
         id="path142"
         inkscape:connector-curvature="0" /><path
         d="m 471.223,245.129 c 1.293,-8.77 6.468,-14.949 15.523,-18.399 l 11.789,-3.738 c 4.742,-1.582 8.336,-3.304 11.07,-5.32 -3.308,9.922 -8.625,16.676 -16.101,20.269 -2.445,1.293 -5.895,2.59 -10.492,3.594 l -11.789,3.594"
         style="fill:#ffffff;fill-opacity:1;fill-rule:evenodd;stroke:none"
         id="path144"
         inkscape:connector-curvature="0" /><path
         d="m 480.566,216.668 c 2.157,-4.027 7.188,-7.188 15.094,-9.633 10.063,-2.875 16.676,-5.316 19.695,-7.472 -1.582,8.046 -7.046,14.23 -16.101,18.542 l -11.789,4.458 -10.781,4.886 c -0.719,-1.293 0.578,-4.886 3.882,-10.781"
         style="fill:#ffffff;fill-opacity:1;fill-rule:evenodd;stroke:none"
         id="path146"
         inkscape:connector-curvature="0" /><path
         d="m 505.723,199.703 -11.071,2.875 c -4.453,1.008 -7.906,2.301 -10.492,3.594 1.008,-5.031 2.156,-8.481 3.449,-10.492 2.301,-4.024 7.477,-6.899 15.528,-8.481 10.203,-2.011 16.816,-4.027 19.836,-6.039 -3.02,9.488 -8.77,15.668 -17.25,18.543"
         style="fill:#ffffff;fill-opacity:1;fill-rule:evenodd;stroke:none"
         id="path148"
         inkscape:connector-curvature="0" /><path
         d="m 508.023,181.879 c -8.914,1.582 -14.375,3.019 -16.386,4.312 2.586,-9.199 10.636,-15.523 24.293,-18.832 3.449,1.297 6.613,3.594 9.488,6.903 -3.594,3.738 -9.488,6.324 -17.395,7.617"
         style="fill:#ffffff;fill-opacity:1;fill-rule:evenodd;stroke:none"
         id="path150"
         inkscape:connector-curvature="0" /><path
         d="m 535.336,112.449 c 4.312,-4.457 10.352,-5.894 18.113,-4.312 l 9.918,2.301 10.352,-0.29 c -2.735,4.743 -9.059,7.477 -18.977,8.196 l -12.793,0.285 -11.933,0.863 5.32,-7.043"
         style="fill:#ffffff;fill-opacity:1;fill-rule:evenodd;stroke:none"
         id="path152"
         inkscape:connector-curvature="0" /><path
         d="m 594.992,87.723 c 5.895,1.582 10.637,2.73 14.231,3.308 -6.469,5.317 -14.805,7.473 -25.301,6.18 -3.449,-0.43 -7.617,-1.293 -12.504,-2.586 L 560.637,91.461 C 565.813,85.566 573,83.41 582.199,84.848 l 12.793,2.875"
         style="fill:#ffffff;fill-opacity:1;fill-rule:evenodd;stroke:none"
         id="path154"
         inkscape:connector-curvature="0" /><path
         d="m 578.316,80.105 c 7.043,-6.613 12.793,-9.343 17.25,-8.05 2.301,0.863 7.043,5.894 14.231,15.238 -2.442,0 -7.473,-1.152 -14.805,-3.449 -7.332,-2.446 -12.937,-3.739 -16.676,-3.739"
         style="fill:#ffffff;fill-opacity:1;fill-rule:evenodd;stroke:none"
         id="path156"
         inkscape:connector-curvature="0" /><path
         d="m 616.266,75.074 c 1.297,1.582 2.3,3.594 3.308,6.18 0.43,-3.879 -2.011,-7.332 -7.332,-10.637 l 4.024,4.457"
         style="fill:#ffffff;fill-opacity:1;fill-rule:evenodd;stroke:none"
         id="path158"
         inkscape:connector-curvature="0" /><path
         d="m 629.637,77.23 c -0.574,2.731 -1.582,4.743 -3.02,6.325 2.731,0.144 5.031,-1.438 6.899,-4.602 1.871,-3.16 1.582,-5.75 -0.86,-7.906 -1.297,1.297 -2.301,3.453 -3.019,6.183"
         style="fill:#ffffff;fill-opacity:1;fill-rule:evenodd;stroke:none"
         id="path160"
         inkscape:connector-curvature="0" /><path
         d="m 625.324,61.563 c -3.308,-1.008 -5.75,-0.579 -7.621,1.148 l -0.43,2.445 0.29,3.449 4.167,5.032 c 1.583,2.156 2.586,3.879 2.731,5.316 l 4.742,-7.906 c 1.008,-3.305 -0.285,-6.469 -3.879,-9.484"
         style="fill:#ffffff;fill-opacity:1;fill-rule:evenodd;stroke:none"
         id="path162"
         inkscape:connector-curvature="0" /><path
         d="M 616.699,87.293 C 615.98,79.961 612.672,74.5 606.492,71.047 c 4.024,2.734 7.477,8.051 10.207,16.246"
         style="fill:#ffffff;fill-opacity:1;fill-rule:evenodd;stroke:none"
         id="path164"
         inkscape:connector-curvature="0" /><path
         d="m 547.41,135.305 -3.019,5.175 c -3.305,-1.292 -4.598,-2.445 -3.879,-3.164 l 6.898,-2.011"
         style="fill:#ffffff;fill-opacity:1;fill-rule:evenodd;stroke:none"
         id="path166"
         inkscape:connector-curvature="0" /><path
         d="m 523.117,126.391 c 5.031,-2.442 11.356,-3.735 18.977,-3.735 l 19.117,-1.726 c -3.738,7.617 -11.645,12.074 -23.863,13.511 l -14.231,-8.05"
         style="fill:#ffffff;fill-opacity:1;fill-rule:evenodd;stroke:none"
         id="path168"
         inkscape:connector-curvature="0" /><path
         d="m 520.531,137.316 c 1.004,2.731 1.723,7.477 2.012,13.946 0.43,6.468 1.437,12.074 3.305,16.531 -8.192,-2.59 -14.086,-9.059 -17.825,-19.262 l -4.027,-13.515 c -1.293,-5.606 -2.586,-9.774 -3.879,-12.504 4.168,0.718 8.336,2.586 12.504,5.605 4.027,3.02 6.613,6.039 7.91,9.199"
         style="fill:#ffffff;fill-opacity:1;fill-rule:evenodd;stroke:none"
         id="path170"
         inkscape:connector-curvature="0" /><path
         d="m 478.84,115.18 c 7.906,-0.719 13.945,3.593 18.113,12.648 1.438,3.02 2.875,7.188 4.457,12.508 l 3.449,12.074 c -6.898,-1.293 -12.504,-5.894 -16.675,-14.086 L 478.84,115.18"
         style="fill:#ffffff;fill-opacity:1;fill-rule:evenodd;stroke:none"
         id="path172"
         inkscape:connector-curvature="0" /><path
         d="m 573.859,228.742 c -1.722,6.324 -2.441,11.789 -2.156,16.531 -7.617,-7.043 -10.781,-15.523 -9.484,-25.445 l 2.586,-12.793 3.019,-12.363 c 2.875,0.719 5.176,3.308 7.043,8.051 1.582,4.027 2.446,7.906 2.301,11.5 -0.145,2.59 -1.152,7.476 -3.309,14.519"
         style="fill:#ffffff;fill-opacity:1;fill-rule:evenodd;stroke:none"
         id="path174"
         inkscape:connector-curvature="0" /><path
         d="m 538.355,184.18 c -5.605,-2.875 -9.058,-10.063 -10.351,-21.563 L 527,147.953 c -0.434,-5.75 -0.863,-10.203 -1.582,-13.223 11.93,4.887 17.25,12.504 16.242,22.711 l -2.73,13.227 c -1.293,5.605 -1.438,10.062 -0.575,13.512"
         style="fill:#ffffff;fill-opacity:1;fill-rule:evenodd;stroke:none"
         id="path176"
         inkscape:connector-curvature="0" /><path
         d="m 584.641,261.375 c -7.328,-8.195 -10.063,-16.82 -8.336,-25.734 l 3.019,-10.782 c 1.293,-4.168 2.012,-7.906 1.867,-11.066 6.758,6.18 9.489,13.941 8.481,23.285 l -2.731,12.219 -2.3,12.078"
         style="fill:#ffffff;fill-opacity:1;fill-rule:evenodd;stroke:none"
         id="path178"
         inkscape:connector-curvature="0" /><path
         d="m 607.211,253.609 c 0.574,-5.031 0.574,-8.91 0,-11.929 2.586,0.429 4.887,3.164 6.898,7.906 1.727,4.168 2.59,8.051 2.59,11.5 0,7.187 -1.008,16.102 -3.164,26.883 -6.18,-3.883 -8.91,-11.071 -7.906,-21.422 l 1.582,-12.938"
         style="fill:#ffffff;fill-opacity:1;fill-rule:evenodd;stroke:none"
         id="path180"
         inkscape:connector-curvature="0" /><path
         d="m 590.105,254.043 c 0.43,-3.02 1.293,-7.621 2.731,-13.656 1.437,-5.465 2.156,-9.199 2.156,-11.215 6.469,5.32 9.199,12.797 8.196,22.426 l -1.872,12.507 c -0.718,5.032 -0.863,9.344 -0.429,12.938 -8.481,-3.883 -12.074,-11.5 -10.782,-23"
         style="fill:#ffffff;fill-opacity:1;fill-rule:evenodd;stroke:none"
         id="path182"
         inkscape:connector-curvature="0" /><path
         d="m 449.949,131.855 c -7.332,1.583 -14.664,-0.863 -21.707,-7.332 l -9.199,-8.48 c -3.594,-3.449 -6.902,-6.039 -9.922,-7.621 2.156,-2.156 5.609,-3.016 10.496,-2.875 4.457,0.433 7.906,1.582 10.637,3.453 2.73,2.012 6.039,5.891 9.918,11.5 4.027,5.605 7.332,9.344 9.777,11.355"
         style="fill:#ffffff;fill-opacity:1;fill-rule:evenodd;stroke:none"
         id="path184"
         inkscape:connector-curvature="0" /><path
         d="m 427.234,130.129 c -7.906,2.301 -15.957,0.719 -24.004,-4.742 l -10.207,-7.762 -10.351,-7.187 c 8.34,-3.594 16.676,-2.875 25.156,2.156 4.027,2.586 10.496,8.48 19.406,17.535"
         style="fill:#ffffff;fill-opacity:1;fill-rule:evenodd;stroke:none"
         id="path186"
         inkscape:connector-curvature="0" /><path
         d="m 468.348,135.879 c -7.043,0.434 -13.368,-3.02 -18.977,-10.063 l -6.609,-9.343 -7.047,-8.91 c 2.734,-1.872 6.039,-2.59 9.922,-1.872 3.734,0.719 6.609,2.301 8.625,4.747 2.156,2.585 4.453,6.898 7.187,12.792 2.442,5.895 4.742,10.063 6.899,12.649"
         style="fill:#ffffff;fill-opacity:1;fill-rule:evenodd;stroke:none"
         id="path188"
         inkscape:connector-curvature="0" /><path
         d="m 486.605,144.074 c -7.906,-1.726 -13.656,-6.469 -17.539,-14.23 l -4.886,-10.641 c -1.871,-4.453 -4.028,-8.047 -6.469,-11.066 8.48,0.718 14.805,5.176 18.973,13.367 l 4.457,11.355 c 1.871,4.746 3.738,8.485 5.464,11.215"
         style="fill:#ffffff;fill-opacity:1;fill-rule:evenodd;stroke:none"
         id="path190"
         inkscape:connector-curvature="0" /><path
         d="m 502.703,157.73 c 2.301,1.004 5.465,3.161 9.344,6.754 -3.16,0.579 -8.051,2.301 -14.52,5.321 1.727,-5.895 3.453,-9.918 5.176,-12.075"
         style="fill:#ffffff;fill-opacity:1;fill-rule:evenodd;stroke:none"
         id="path192"
         inkscape:connector-curvature="0" /><path
         d="m 704.242,293.719 c 4.313,1.867 8.051,6.613 11.071,14.23 3.878,9.918 7.042,16.102 9.484,18.832 -9.344,-0.144 -16.387,-4.601 -20.844,-13.371 -1.437,-2.73 -3.015,-6.609 -4.598,-11.5 l -3.449,-10.203 c 4.024,0.719 6.754,1.438 8.336,2.012"
         style="fill:#ffffff;fill-opacity:1;fill-rule:evenodd;stroke:none"
         id="path194"
         inkscape:connector-curvature="0" /><path
         d="m 747.656,329.223 c -8.914,3.019 -16.246,-0.43 -21.996,-10.348 -1.582,-2.445 -3.738,-6.758 -6.324,-12.652 -2.301,-5.317 -4.023,-8.766 -5.176,-10.493 7.621,-0.863 13.945,2.731 18.688,10.637 l 6.324,11.5 c 2.734,4.887 5.609,8.625 8.484,11.356"
         style="fill:#ffffff;fill-opacity:1;fill-rule:evenodd;stroke:none"
         id="path196"
         inkscape:connector-curvature="0" /><path
         d="m 751.969,327.355 c -1.871,-1.582 -4.891,-6.179 -8.914,-13.511 -3.883,-7.477 -7.477,-12.508 -10.492,-14.949 10.347,-0.579 16.386,0.429 18.109,2.875 2.59,2.73 3.594,7.187 3.019,13.367 l -1.722,12.218"
         style="fill:#ffffff;fill-opacity:1;fill-rule:evenodd;stroke:none"
         id="path198"
         inkscape:connector-curvature="0" /><path
         d="m 691.734,290.844 4.172,15.379 c 1.578,4.601 4.313,9.632 7.907,15.093 -5.61,-0.718 -9.204,-2.011 -10.926,-3.593 -2.446,-1.578 -4.168,-4.887 -5.176,-9.774 0.719,-1.293 1.582,-5.031 2.586,-10.926 0.863,-4.886 1.297,-6.898 1.437,-6.179"
         style="fill:#ffffff;fill-opacity:1;fill-rule:evenodd;stroke:none"
         id="path200"
         inkscape:connector-curvature="0" /><path
         d="m 274.859,232.91 c 8.196,0 14.375,-1.867 18.688,-5.461 -2.156,-1.293 -7.617,-2.011 -16.098,-2.445 l -14.09,-0.43 c -1.148,3.305 -1.582,5.75 -1.293,7.332 l 12.793,1.004"
         style="fill:#ffffff;fill-opacity:1;fill-rule:evenodd;stroke:none"
         id="path202"
         inkscape:connector-curvature="0" /><path
         d="m 688,317.293 -3.594,-1.008 1.004,-4.887 2.59,5.895"
         style="fill:#ffffff;fill-opacity:1;fill-rule:evenodd;stroke:none"
         id="path204"
         inkscape:connector-curvature="0" /><path
         d="m 549.422,99.941 c 5.176,-4.023 11.644,-5.031 19.406,-2.875 l 9.633,3.02 10.207,1.008 c -3.594,4.742 -10.207,6.609 -19.84,5.75 l -12.359,-1.727 -11.934,-1.008 4.887,-4.168"
         style="fill:#ffffff;fill-opacity:1;fill-rule:evenodd;stroke:none"
         id="path206"
         inkscape:connector-curvature="0" /><path
         d="m 363.121,251.453 1.582,-3.449 c 1.582,-4.168 6.469,-7.617 14.949,-10.063 9.922,-2.875 16.532,-5.75 19.551,-8.48 -2.441,10.492 -8.051,17.105 -16.676,19.836 l -10.922,2.301 c -4.171,1.152 -7.332,2.73 -9.632,4.746 l 1.148,-4.891"
         style="fill:#ffffff;fill-opacity:1;fill-rule:evenodd;stroke:none"
         id="path208"
         inkscape:connector-curvature="0" /><path
         d="m 416.309,182.453 c -2.875,10.207 -8.336,17.539 -16.243,22.281 -2.73,1.871 -6.468,3.594 -11.07,5.321 l -11.93,4.457 c 1.008,-9.059 6.18,-15.813 15.813,-20.414 l 12.219,-5.461 c 4.886,-2.012 8.625,-4.028 11.211,-6.184"
         style="fill:#ffffff;fill-opacity:1;fill-rule:evenodd;stroke:none"
         id="path210"
         inkscape:connector-curvature="0" /><path
         d="m 406.391,183.031 -11.786,5.032 c -4.746,2.011 -8.195,3.734 -10.64,5.171 -0.719,-1.293 0.578,-4.886 3.594,-10.921 1.871,-4.172 6.902,-7.477 14.808,-10.063 9.918,-3.164 16.387,-5.895 19.406,-8.051 -1.437,8.051 -6.613,14.375 -15.382,18.832"
         style="fill:#ffffff;fill-opacity:1;fill-rule:evenodd;stroke:none"
         id="path212"
         inkscape:connector-curvature="0" /><path
         d="m 396.328,212.066 c 4.746,-1.867 8.481,-3.878 10.926,-6.035 -1.008,8.481 -5.75,15.235 -14.375,20.41 -2.586,1.582 -6.469,3.45 -11.789,5.606 l -11.93,5.465 c 0.574,-9.633 5.461,-16.532 14.805,-20.844 l 12.363,-4.602"
         style="fill:#ffffff;fill-opacity:1;fill-rule:evenodd;stroke:none"
         id="path214"
         inkscape:connector-curvature="0" /><path
         d="m 347.598,284.516 c 2.156,-4.024 7.476,-6.61 16.101,-7.907 10.492,-1.578 17.391,-3.449 20.699,-5.89 -3.593,8.765 -10.062,14.375 -19.261,17.105 l -11.5,2.586 c -4.313,1.008 -7.766,2.301 -10.352,3.883 -0.43,-1.008 0,-2.586 1.293,-5.031 l 3.02,-4.746"
         style="fill:#ffffff;fill-opacity:1;fill-rule:evenodd;stroke:none"
         id="path216"
         inkscape:connector-curvature="0" /><path
         d="m 392.016,250.16 c -3.305,9.918 -8.77,16.387 -16.532,19.695 l -11.066,3.161 -12.219,2.445 c 1.867,-9.344 7.328,-15.383 16.531,-18.113 l 11.93,-3.02 c 4.742,-1.148 8.625,-2.586 11.356,-4.168"
         style="fill:#ffffff;fill-opacity:1;fill-rule:evenodd;stroke:none"
         id="path218"
         inkscape:connector-curvature="0" /><path
         d="m 408.547,165.063 -10.637,4.167 -9.918,4.743 c -0.574,-1.149 0.574,-4.887 3.594,-11.067 1.867,-3.883 6.324,-7.047 13.367,-9.203 10.637,-3.305 16.82,-5.461 18.402,-6.324 0.575,-0.285 1.004,-0.145 1.293,0.574 l 0.145,2.016 c -2.301,6.179 -7.766,11.211 -16.246,15.094"
         style="fill:#ffffff;fill-opacity:1;fill-rule:evenodd;stroke:none"
         id="path220"
         inkscape:connector-curvature="0" /><path
         d="m 406.824,149.391 c -5.894,1.726 -10.351,3.453 -13.371,5.031 0.289,-3.879 1.106,-6.793 3.723,-9.496 1.719,-1.778 9.359,-3.926 13.383,-3.582 5.175,0.285 8.625,1.293 10.351,3.16 -2.73,1.293 -7.476,3.019 -14.086,4.887"
         style="fill:#ffffff;fill-opacity:1;fill-rule:evenodd;stroke:none"
         id="path222"
         inkscape:connector-curvature="0" /><path
         d="m 411.996,244.125 c 1.152,-3.309 1.438,-5.75 1.008,-7.047 l -2.731,-0.14 -8.339,0.574 -0.43,1.582 -1.008,2.586 6.469,1.148 5.031,1.297"
         style="fill:#ffffff;fill-opacity:1;fill-rule:evenodd;stroke:none"
         id="path224"
         inkscape:connector-curvature="0" /><path
         d="m 397.336,337.273 -5.031,4.602 c -2.59,2.301 -4.457,4.457 -5.75,6.324 -4.168,5.75 -4.028,11.356 0.429,16.961 l 6.039,6.903 c 0,-6.758 0.575,-12.793 1.582,-18.403 1.438,-7.187 2.297,-12.648 2.731,-16.387"
         style="fill:#ffffff;fill-opacity:1;fill-rule:evenodd;stroke:none"
         id="path226"
         inkscape:connector-curvature="0" /><path
         d="m 376.059,332.098 c 4.601,-6.18 11.359,-8.192 20.414,-5.75 -7.332,-7.328 -13.657,-10.348 -19.262,-9.055 -2.731,5.895 -3.02,10.926 -1.152,14.805"
         style="fill:#ffffff;fill-opacity:1;fill-rule:evenodd;stroke:none"
         id="path228"
         inkscape:connector-curvature="0" /><path
         d="m 460.152,344.605 c -3.879,1.727 -9.199,2.731 -15.953,2.875 l -15.957,-0.574 c 0.719,-1.582 1.582,-2.875 2.586,-3.883 l 2.59,-2.3 c 2.297,-1.438 8.48,-3.305 18.398,-5.461 9.2,-2.157 14.95,-4.457 17.395,-6.899 -0.145,6.18 -3.164,11.641 -9.059,16.242"
         style="fill:#ffffff;fill-opacity:1;fill-rule:evenodd;stroke:none"
         id="path230"
         inkscape:connector-curvature="0" /><path
         d="m 445.348,363.293 c -4.457,0 -8.481,-0.863 -12.364,-2.73 l -10.925,-7.762 c 3.593,-2.735 8.769,-3.594 15.671,-2.735 8.192,1.008 13.942,0.864 17.391,-0.285 l 3.02,0 -4.313,8.481 c -2.012,2.875 -4.887,4.601 -8.48,5.031"
         style="fill:#ffffff;fill-opacity:1;fill-rule:evenodd;stroke:none"
         id="path232"
         inkscape:connector-curvature="0" /><path
         d="m 424.359,375.082 c -3.304,-2.301 -6.468,-6.184 -9.488,-11.789 l -7.043,-12.938 c 3.164,1.008 8.914,4.458 17.106,10.352 6.902,4.742 12.937,6.898 18.257,6.754 -2.445,2.73 -5.75,5.176 -9.918,7.043 -4.312,1.726 -7.332,1.871 -8.914,0.578"
         style="fill:#ffffff;fill-opacity:1;fill-rule:evenodd;stroke:none"
         id="path234"
         inkscape:connector-curvature="0" /><path
         d="m 407.543,359.125 c 3.305,7.617 6.898,13.367 10.492,17.395 -9.773,1.578 -16.387,0 -19.98,-4.891 -1.008,-3.734 -0.864,-8.191 0.285,-13.512 1.437,-7.043 2.156,-11.929 2.156,-14.804 l 7.047,15.812"
         style="fill:#ffffff;fill-opacity:1;fill-rule:evenodd;stroke:none"
         id="path236"
         inkscape:connector-curvature="0" /><path
         d="m 458.141,289.551 c 1.437,-4.317 6.468,-7.621 14.949,-10.067 10.062,-3.015 16.531,-6.035 19.551,-8.765 -2.442,10.492 -7.907,17.105 -16.676,19.836 l -10.781,2.73 c -4.168,1.008 -7.473,2.301 -9.918,4.172 0.144,-1.582 0.574,-3.019 1.293,-4.602 l 1.582,-3.304"
         style="fill:#ffffff;fill-opacity:1;fill-rule:evenodd;stroke:none"
         id="path238"
         inkscape:connector-curvature="0" /><path
         d="m 498.965,251.887 c -1.578,8.48 -6.324,14.804 -14.516,19.117 l -11.5,4.601 -11.789,4.458 c 1.008,-9.344 5.895,-15.813 14.949,-19.266 l 11.934,-3.734 c 4.742,-1.438 8.336,-3.165 10.922,-5.176"
         style="fill:#ffffff;fill-opacity:1;fill-rule:evenodd;stroke:none"
         id="path240"
         inkscape:connector-curvature="0" /><path
         d="m 442.762,325.344 c 2.156,-4.028 7.472,-6.614 16.097,-7.906 10.496,-1.583 17.395,-3.594 20.7,-6.04 -3.594,8.77 -9.918,14.52 -19.262,17.25 l -11.5,2.446 c -4.313,1.004 -7.762,2.301 -10.348,3.738 -0.433,-0.863 0,-2.445 1.438,-4.746 l 2.875,-4.742"
         style="fill:#ffffff;fill-opacity:1;fill-rule:evenodd;stroke:none"
         id="path242"
         inkscape:connector-curvature="0" /><path
         d="m 486.605,291.273 c -3.308,9.918 -8.769,16.532 -16.39,19.551 l -11.067,3.02 -11.933,2.301 c 1.726,-9.344 7.047,-15.239 16.101,-17.829 l 11.93,-2.875 c 4.746,-1.003 8.484,-2.441 11.359,-4.168"
         style="fill:#ffffff;fill-opacity:1;fill-rule:evenodd;stroke:none"
         id="path244"
         inkscape:connector-curvature="0" /><path
         d="m 397.336,330.66 c -3.883,-2.156 -8.34,-2.441 -13.227,-0.574 -5.894,2.156 -8.336,7.332 -7.617,15.527 l 3.449,8.625 c 2.301,-5.75 4.887,-9.922 7.618,-12.652 4.457,-4.457 7.765,-8.191 9.777,-10.926"
         style="fill:#ffffff;fill-opacity:1;fill-rule:evenodd;stroke:none"
         id="path246"
         inkscape:connector-curvature="0" /><path
         d="m 377.211,307.805 c 3.449,1.582 6.18,3.883 8.336,6.902 l -9.344,-0.434 c 0,-3.304 0.289,-5.46 1.008,-6.468"
         style="fill:#ffffff;fill-opacity:1;fill-rule:evenodd;stroke:none"
         id="path248"
         inkscape:connector-curvature="0" /><path
         d="m 546.691,156.004 c 2.731,0.574 4.747,3.019 6.184,7.332 1.004,3.449 1.438,6.898 1.148,10.492 -0.144,2.59 -1.437,7.047 -3.738,13.516 -2.012,5.89 -3.16,11.066 -3.305,15.523 -4.601,-6.179 -6.324,-13.801 -5.32,-23.144 l 5.031,-23.719"
         style="fill:#ffffff;fill-opacity:1;fill-rule:evenodd;stroke:none"
         id="path250"
         inkscape:connector-curvature="0" /><path
         d="m 556.898,222.418 c -5.894,-8.195 -7.761,-16.531 -5.605,-25.301 l 3.449,-10.781 c 1.438,-4.168 2.301,-7.762 2.446,-11.07 5.75,6.039 7.761,13.656 6.035,23 l -3.305,12.078 c -1.582,5.461 -2.59,9.484 -3.02,12.074"
         style="fill:#ffffff;fill-opacity:1;fill-rule:evenodd;stroke:none"
         id="path252"
         inkscape:connector-curvature="0" /><path
         d="m 367.148,138.324 c -5.75,5.031 -13.511,6.18 -23.433,3.739 l -12.504,-3.594 -12.793,-2.156 c 0.859,-2.875 3.594,-5.321 8.191,-7.333 4.168,-1.726 7.762,-2.445 11.071,-2.011 3.019,0.429 7.906,2.297 14.519,5.605 6.61,3.305 11.641,5.176 14.949,5.75"
         style="fill:#ffffff;fill-opacity:1;fill-rule:evenodd;stroke:none"
         id="path254"
         inkscape:connector-curvature="0" /><path
         d="m 373.762,125.672 c 5.031,3.883 9.054,6.469 12.218,7.766 -5.894,3.593 -13.371,3.593 -22.281,0 l -10.64,-5.032 c -4.598,-2.156 -8.192,-3.593 -10.922,-4.312 1.578,-3.309 4.597,-5.465 8.765,-6.469 l 10.496,0.285 c 3.161,1.153 7.332,3.738 12.364,7.762"
         style="fill:#ffffff;fill-opacity:1;fill-rule:evenodd;stroke:none"
         id="path256"
         inkscape:connector-curvature="0" /><path
         d="m 395.754,124.523 c 3.883,3.305 7.332,5.75 10.062,7.332 -7.617,2.157 -15.093,0.719 -22.281,-4.027 l -9.344,-7.043 c -3.882,-3.019 -7.476,-5.316 -10.925,-6.613 7.906,-3.594 15.527,-2.731 22.855,2.734 l 9.633,7.617"
         style="fill:#ffffff;fill-opacity:1;fill-rule:evenodd;stroke:none"
         id="path258"
         inkscape:connector-curvature="0" /><path
         d="m 346.59,145.797 c -4.598,5.894 -12.938,8.625 -24.867,8.195 l -14.95,-1.008 -13.511,0.579 c 1.293,-3.309 4.168,-6.469 8.625,-9.489 3.879,-2.73 7.617,-4.312 10.922,-4.457 3.308,-0.144 8.914,1.008 16.82,3.164 8.051,2.157 13.656,3.16 16.961,3.016"
         style="fill:#ffffff;fill-opacity:1;fill-rule:evenodd;stroke:none"
         id="path260"
         inkscape:connector-curvature="0" /></g></g></svg>