<?xml version="1.0" encoding="utf-8"?>
<!-- Generator: Adobe Illustrator 15.1.0, SVG Export Plug-In . SVG Version: 6.00 Build 0)  -->
<!DOCTYPE svg PUBLIC "-//W3C//DTD SVG 1.1//EN" "http://www.w3.org/Graphics/SVG/1.1/DTD/svg11.dtd">
<svg version="1.1" id="Ebene_1" xmlns="http://www.w3.org/2000/svg" xmlns:xlink="http://www.w3.org/1999/xlink" x="0px" y="0px"
	 width="480px" height="280px" viewBox="0 0 480 280" enable-background="new 0 0 480 280" xml:space="preserve">
<path fill-rule="evenodd" clip-rule="evenodd" fill="#333333" d="M325.355,144.215c2.109-1.738,4.398-3.481,7.059-5.223
	l-2.016-7.699L325.355,144.215 M362.664,121.117l6.504-4.031l-8.613,0.551L362.664,121.117z M364.77,76.937
	c-2.293,0.09-5.039,1.012-8.43,2.661c-1.836,1.281-3.484,2.839-5.043,4.582l6.781-0.457c6.875-0.551,13.199-0.094,18.973,1.464
	l0.367-0.183l-4.488-4.766C370.27,77.949,367.52,76.848,364.77,76.937z M56.883,137.34c-1.008,16.227,3.484,31.164,13.566,44.641
	c4.035,4.859,11.824,9.992,23.375,15.581c14.664,7.06,29.145,11,43.446,11.735l28.14,0.273c12.649-0.094,24.563-1.191,35.746-3.117
	l22.457-6.142c10.45-3.206,18.055-6.597,22.915-10.081c11.918-5.5,22.914-14.669,32.996-27.406c-1.738-2.84-3.207-5.867-4.582-9.074
	c-2.199-4.219-3.754-9.992-4.766-17.414c-1.191-8.711-0.734-16.41,1.191-22.918c3.941-12.008,13.293-20.621,27.867-25.754
	c-2.383-2.934-6.602-6.051-12.652-9.258c-6.137-3.211-10.449-6.234-12.832-9.078c-5.039,0.094-9.531-0.824-13.289-2.566
	l-8.707-5.407l-10.91-0.367l-10.356-2.933l-31.347-1.098l-30.34,1.375c-10.176,2.289-18.699,4.582-25.571,6.875l-13.386,4.121
	c-3.481,1.102-9.531,3.758-18.055,7.977L95.93,85.004c-6.692,4.676-12.649,9.992-17.875,15.949l-10.356,12.649
	c-3.023,4.398-5.133,7.882-6.324,10.359C60,126.984,58.535,131.387,56.883,137.34z M111.789,40.184
	c8.891-3.028,16.316-4.676,22.09-4.86c2.289-1.191,5.59-2.199,10.082-3.023l14.117-2.477c4.215-2.289,9.621-3.758,16.317-4.215
	l11.64,0.457c3.207-1.375,6.141-2.015,8.707-2.109l13.84,0.277l26.488,3.485l11.184,1.558c5.59,0.641,11.09,2.2,16.5,4.582
	c9.988,0.825,18.789,3.207,26.305,7.332l19.246,12.465l8.984,4.125c3.578,1.926,7.059,5.317,10.266,10.266l1.285-2.289
	c4.582-5.867,10.449-10.36,17.691-13.477c4.492-2.015,10.629-3.758,18.422-5.133c12.559-0.089,23.281,4.403,32.172,13.661
	c7.148,7.421,10.633,14.48,10.543,21.171l35.84,0.457c5.496,0.184,9.715,1.192,12.738,3.024c4.398,4.953,4.949,14.758,1.559,29.516
	c-3.852,1.925-8.434,2.566-13.656,1.742l-10.266-1.008l-12.281,0.641l-10.91-0.641l-4.215,0.273
	c-5.227,9.168-11.273,16.59-18.059,22.274c-4.949,3.941-9.809,6.691-14.484,8.434c1.836,8.707,1.379,17.23-1.465,25.574
	c-3.391,7.421-8.891,13.199-16.5,17.23c-7.973,4.219-17.23,6.051-27.68,5.406l-0.367-0.18l-1.375,7.055
	c-0.824,5.777-0.914,13.387-0.457,22.734c0.457,9.715,0.551,15.949,0.273,18.605c-0.551,5.5-2.477,9.074-5.773,10.816l-5.59,2.016
	l-5.961,0.094c-5.406-1.191-9.164-2.477-11.09-3.668c-2.383-1.742-3.48-4.492-3.301-8.066l1.191-28.598l3.027-23.922
	c-6.234,6.691-14.023,13.109-23.465,19.34c-16.594,11.09-34.008,18.883-52.339,23.375c-16.407,4.855-28.965,6.965-37.489,6.141
	c-6.414,1.559-14.484,2.289-24.199,2.289l-23.371-0.184c-29.059-3.207-48.582-8.523-58.391-15.766
	c-9.347-1.926-17.32-6.875-24.011-14.848c-7.977-5.406-14.758-12.191-20.532-20.348c-5.961-8.434-9.992-17.418-12.101-27.039
	c-3.848-12.559-3.942-25.117-0.367-37.492c3.027-10.539,9.257-22.457,18.609-35.746l12.465-14.391
	C60,70.34,65.684,65.574,70.727,62.824l7.511-7.058c3.578-2.657,8.16-4.954,13.934-6.875C97.582,45.773,104.09,42.84,111.789,40.184
	z"/>
<path fill-rule="evenodd" clip-rule="evenodd" fill="#FFFFFF" d="M141.211,38.074c1.375-2.472,4.402-3.758,9.074-3.758
	c3.758,0,7.426,0.641,11,2.016c2.844,1.195,6.965,4.035,12.375,8.344c5.223,4.215,9.442,6.965,12.465,8.246
	c-6.875,3.578-14.664,3.027-23.281-1.465c-2.567-1.375-6.235-3.574-11-6.781C147.168,41.465,143.594,39.266,141.211,38.074"/>
<path fill-rule="evenodd" clip-rule="evenodd" fill="#FFFFFF" d="M162.293,56.5c-6.141,3.574-13.566,3.391-22.273-0.461
	c-2.657-1.191-6.325-3.207-11-5.863l-10.907-6.051c6.692-4.492,14.301-4.953,23.008-1.195
	C144.969,44.582,152.027,49.074,162.293,56.5"/>
<path fill-rule="evenodd" clip-rule="evenodd" fill="#FFFFFF" d="M228.746,54.023c-7.609,1.743-15.031-0.55-22.09-6.875
	c-2.105-1.832-5.039-4.855-8.801-9.074l-8.523-8.98c2.02-2.02,5.5-2.477,10.543-1.375c4.215,0.824,7.789,2.289,10.629,4.398
	c2.57,2.106,5.594,5.774,9.078,11C223.156,48.523,226.18,52.098,228.746,54.023"/>
<path fill-rule="evenodd" clip-rule="evenodd" fill="#FFFFFF" d="M183.832,47.332L163.668,31.75
	c7.242-3.484,15.031-2.566,23.375,2.844c3.848,2.383,10.172,8.063,18.973,17.136C199.508,54.207,192.176,52.738,183.832,47.332"/>
<path fill-rule="evenodd" clip-rule="evenodd" fill="#FFFFFF" d="M245.246,48.25l5.59,10.633
	c-8.707-0.094-16.133-3.668-22.273-10.91l-7.149-9.899l-7.059-10.082c10.907,0.184,19.157,3.668,24.75,10.356
	C241.031,40.734,243.137,44.031,245.246,48.25"/>
<path fill-rule="evenodd" clip-rule="evenodd" fill="#FFFFFF" d="M291.535,77.121c-7.242-1.742-12.926-7.332-16.867-16.59
	l-4.215-11.64c-1.648-4.493-3.207-7.883-4.582-10.176c2.84-1.008,6.414-0.367,10.539,2.109c3.941,2.199,6.691,4.766,8.25,7.606
	c1.375,2.843,2.566,7.609,3.391,14.3C288.875,69.328,290.066,74.094,291.535,77.121"/>
<path fill-rule="evenodd" clip-rule="evenodd" fill="#FFFFFF" d="M272.012,66.398c-6.969-0.277-13.109-4.402-18.426-12.375
	c-1.559-2.382-3.574-5.957-6.23-10.722l-5.867-11c10.355,1.191,17.688,5.312,22.09,12.554c1.559,2.477,3.023,5.957,4.582,10.543
	L272.012,66.398"/>
<path fill-rule="evenodd" clip-rule="evenodd" fill="#FFFFFF" d="M321.047,75.93l-4.855,8.707l-3.852,7.148l-0.551-15.394
	l-2.016-18.059c3.211,0,6.234,2.289,8.891,6.875C321.598,69.789,322.422,73.363,321.047,75.93"/>
<path fill-rule="evenodd" clip-rule="evenodd" fill="#FFFFFF" d="M305.465,64.656c1.469,5.133,2.293,13.75,2.477,25.758
	c-7.242-3.578-12.102-10.082-14.574-19.434c-0.824-3.023-1.652-7.242-2.293-12.464l-1.742-12.282
	C297.492,49.074,302.898,55.215,305.465,64.656"/>
<path fill-rule="evenodd" clip-rule="evenodd" fill="#FFFFFF" d="M443.508,85.004c3.758,0,6.504,1.101,8.063,3.207
	c1.469,1.926,2.66,4.949,3.484,9.078l1.375,9.988c-2.109-1.281-5.957-4.765-11.734-10.355c-5.223-4.86-9.715-8.16-13.563-9.719
	L443.508,85.004"/>
<path fill-rule="evenodd" clip-rule="evenodd" fill="#FFFFFF" d="M381.086,87.48c8.613-2.843,17.23-1.195,25.848,4.856
	c3.758,2.66,10.816,9.351,21.082,20.168c-11.184,1.191-20.625-1.379-28.414-7.516c-2.109-1.652-5.137-4.586-9.074-8.894
	C386.77,92.152,383.652,89.312,381.086,87.48"/>
<path fill-rule="evenodd" clip-rule="evenodd" fill="#FFFFFF" d="M358.445,87.754c6.965-3.024,14.484-1.192,22.641,5.5l10.176,9.351
	c4.121,4.032,7.422,6.965,10.078,8.797c-1.371,1.743-4.488,2.477-9.438,2.2c-5.133-0.274-10.723-3.665-16.684-10.176
	C367.43,94.996,361.836,89.77,358.445,87.754"/>
<path fill-rule="evenodd" clip-rule="evenodd" fill="#FFFFFF" d="M377.695,112.41c-7.609,0.824-12.648,0.918-15.219,0.274
	c-2.105-0.547-3.848-2.106-5.406-4.766l-4.215-8.707c-1.746-3.848-3.211-6.781-4.402-8.707c3.578-1.742,7.887-0.367,12.832,4.031
	L377.695,112.41"/>
<path fill-rule="evenodd" clip-rule="evenodd" fill="#FFFFFF" d="M406.109,87.113c8.523-2.84,17.324-1.101,26.305,5.223
	c4.219,2.934,11.457,9.809,21.633,20.535c-8.801,1.922-17.508-0.734-26.215-7.883l-10.633-9.625
	C412.98,91.512,409.316,88.762,406.109,87.113"/>
<path fill-rule="evenodd" clip-rule="evenodd" fill="#FFFFFF" d="M346.711,96.094c4.313,6.324,4.77,12.742,1.379,19.34
	c-0.828,1.742-2.754,4.859-5.777,9.535c-2.934,4.398-5.133,8.156-6.598,11.183c-2.293-3.484-1.926-9.168,1.008-16.957
	L346.711,96.094"/>
<path fill-rule="evenodd" clip-rule="evenodd" fill="#FFFFFF" d="M106.379,73.82c-4.856,6.051-12.281,8.985-22.09,8.707L71,81.52
	l-13.473-0.731c0.274-2.934,2.657-5.773,7.332-8.617c4.215-2.567,7.973-3.942,11.364-4.125c3.211-0.09,8.16,0.824,14.941,2.933
	C98.039,72.906,103.082,73.914,106.379,73.82"/>
<path fill-rule="evenodd" clip-rule="evenodd" fill="#FFFFFF" d="M86.582,86.473C81.91,93.07,74.941,97.012,65.59,98.297
	l-12.649,0.73H40.75c3.941-7.699,10.633-12.281,20.258-13.656L86.582,86.473"/>
<path fill-rule="evenodd" clip-rule="evenodd" fill="#FFFFFF" d="M110.598,59.98c6.14,3.575,10.812,5.684,14.023,6.325
	c-5.406,4.675-12.926,5.957-22.641,3.757c-3.117-0.64-7.332-1.921-12.558-3.757l-11.914-4.032c0.918-2.839,3.574-5.132,8.066-6.875
	c4.125-1.652,7.789-2.199,10.996-1.652C99.781,54.391,104.453,56.5,110.598,59.98"/>
<path fill-rule="evenodd" clip-rule="evenodd" fill="#FFFFFF" d="M140.57,61.996c-5.043,2.754-11.824,2.383-20.535-1.008
	c-1.644-0.64-8.98-4.488-22.086-11.363c6.692-4.219,14.024-4.586,21.906-1.102c2.84,1.282,6.231,3.391,10.356,6.235L140.57,61.996"
	/>
<path fill-rule="evenodd" clip-rule="evenodd" fill="#FFFFFF" d="M72.926,101.137c-2.66,5.222-8.524,8.98-17.508,11.183
	l-24.383,3.207c3.117-7.242,8.891-11.734,17.235-13.382l11.914-1.008H72.926"/>
<path fill-rule="evenodd" clip-rule="evenodd" fill="#FFFFFF" d="M183.832,234.504c-2.289-1.563-6.324-4.953-12.098-10.359
	c-5.226-4.859-9.351-8.156-12.558-9.715c7.148-3.027,15.125-1.743,24.015,3.941l10.723,8.156l10.449,7.609
	c-1.558,2.473-4.949,3.48-9.992,3.207C189.883,237.07,186.309,236.152,183.832,234.504"/>
<path fill-rule="evenodd" clip-rule="evenodd" fill="#FFFFFF" d="M184.566,213.605c6.235-3.027,13.473-2.203,21.723,2.289
	c2.477,1.375,5.867,3.574,10.359,6.691l10.45,6.875c-7.059,4.582-14.758,4.582-22.918,0l-10.266-7.516L184.566,213.605"/>
<path fill-rule="evenodd" clip-rule="evenodd" fill="#FFFFFF" d="M124.988,221.945c-3.027-5.594-5.773-9.441-8.066-11.551
	c7.605-1.191,14.754,1.559,21.355,8.34c1.926,2.02,4.676,5.227,8.067,9.625c3.484,4.582,6.14,7.793,7.976,9.715
	c-2.109,1.93-5.687,2.203-10.543,0.645c-4.214-1.102-7.699-2.844-10.355-5.133C130.945,231.383,128.105,227.535,124.988,221.945"/>
<path fill-rule="evenodd" clip-rule="evenodd" fill="#FFFFFF" d="M139.195,214.336c6.692-2.105,14.114-0.094,22.274,5.957
	c2.66,1.926,5.957,4.859,9.992,8.617l9.437,8.434c-7.425,2.84-15.304,1.375-23.464-4.586
	C153.309,229.738,147.258,223.594,139.195,214.336"/>
<path fill-rule="evenodd" clip-rule="evenodd" fill="#FFFFFF" d="M129.203,237.344c-10.726-1.008-18.699-4.949-23.738-11.918
	c-1.836-2.473-3.668-5.957-5.59-10.262l-4.859-11.094c8.8,0.641,15.949,4.766,21.539,12.375c1.558,2.199,3.668,5.684,6.324,10.359
	L129.203,237.344"/>
<path fill-rule="evenodd" clip-rule="evenodd" fill="#FFFFFF" d="M102.531,231.203c-11.457-0.918-18.883-5.684-22.273-14.392
	c-1.008-2.569-2.02-6.507-2.934-11.733c-0.918-5.773-1.742-9.809-2.566-12.098c6.965,0.824,12.742,5.68,17.414,14.574
	L102.531,231.203"/>
<path fill-rule="evenodd" clip-rule="evenodd" fill="#FFFFFF" d="M245.43,218.555c-3.023-0.828-7.059-3.027-12.008-6.602
	c-4.766-3.392-8.801-5.59-12.008-6.418c5.774-4.309,12.832-5.316,21.082-2.934c2.656,0.828,6.324,2.203,11,4.219l10.996,4.582
	c-1.191,2.84-3.941,4.949-8.25,6.324C252.121,219.102,248.543,219.379,245.43,218.555"/>
<path fill-rule="evenodd" clip-rule="evenodd" fill="#FFFFFF" d="M205.281,208.746c5.223-2.293,11.735-1.56,19.434,2.289
	l21.082,12.285c-7.059,3.758-14.117,3.758-21.27-0.184c-2.656-1.375-5.863-3.575-9.621-6.508L205.281,208.746"/>
<path fill-rule="evenodd" clip-rule="evenodd" fill="#FFFFFF" d="M375.77,51.184c7.242,1.832,11.547,5.132,12.832,9.804
	c-1.191,9.442-4.582,16.133-9.992,19.981c-1.191-2.289-1.648-5.68-1.375-9.989l0.734-13.656L375.77,51.184"/>
<path fill-rule="evenodd" clip-rule="evenodd" fill="#FFFFFF" d="M396.668,80.695c-1.191,1.192-3.484,1.926-7.059,2.2l-7.699,0.183
	c6.602-8.156,10.082-15.398,10.539-21.539c3.117,2.293,5.043,5.316,5.777,9.074C398.957,74.094,398.41,77.488,396.668,80.695"/>
<path fill-rule="evenodd" clip-rule="evenodd" fill="#FFFFFF" d="M345.98,69.789l9.621,7.332c-3.391,1.742-8.156,1.926-14.387,0.734
	l-15.125-1.101c1.375-5.406,4.125-8.613,8.34-9.809C338.188,66.398,342.039,67.312,345.98,69.789"/>
<path fill-rule="evenodd" clip-rule="evenodd" fill="#FFFFFF" d="M401.617,82.715h-2.473l2.473-8.528l2.016,4.493
	C404.461,80.512,403.816,81.887,401.617,82.715"/>
<path fill-rule="evenodd" clip-rule="evenodd" fill="#FFFFFF" d="M335.348,80.422l10.816,3.023
	c-1.742,5.223-6.234,8.157-13.293,8.801l-8.797,0.641c-3.395,0.367-5.961,1.101-7.883,2.293c1.008-5.227,3.754-9.719,8.156-13.477
	C327.371,80.055,331.039,79.598,335.348,80.422"/>
<path fill-rule="evenodd" clip-rule="evenodd" fill="#FFFFFF" d="M309.406,102.145c-0.367,1.191-1.375,1.648-3.023,1.468
	l-5.957-1.468c-6.785-1.833-12.375-1.649-16.684,0.46c4.035-4.859,8.801-7.062,14.391-6.601
	C302.992,96.371,306.75,98.387,309.406,102.145"/>
<path fill-rule="evenodd" clip-rule="evenodd" fill="#FFFFFF" d="M311.973,104.07c2.199-3.027,5.227-5.043,8.984-6.234l20.988-2.109
	c-4.121,6.511-8.801,11-13.84,13.293l-17.508,5.683C308.949,111.035,309.406,107.461,311.973,104.07"/>
<path fill-rule="evenodd" clip-rule="evenodd" fill="#FFFFFF" d="M305.191,109.844c0.367,3.668-0.641,5.226-3.027,4.586
	l-7.516-0.828c-4.488-0.368-8.066,0-10.633,1.007l-9.809,4.95c-0.637-6.508,3.484-11.547,12.191-15.122l12.102,0.735
	C303.359,106.359,305.559,107.918,305.191,109.844"/>
<path fill-rule="evenodd" clip-rule="evenodd" fill="#FFFFFF" d="M307.117,122.492c3.113-3.023,7.789-5.59,14.023-7.699
	l15.215-4.856c-0.918,6.965-5.133,12.004-12.559,15.032l-9.348,3.574c-3.668,1.375-6.508,2.934-8.434,4.676
	C304.457,130.102,304.824,126.527,307.117,122.492"/>
<path fill-rule="evenodd" clip-rule="evenodd" fill="#FFFFFF" d="M396.301,120.566l-18.332-3.48h24.105
	c0.094,1.008-0.547,1.922-1.922,2.66C398.773,120.566,397.492,120.844,396.301,120.566"/>
<path fill-rule="evenodd" clip-rule="evenodd" fill="#FFFFFF" d="M302.898,120.02c-2.016,2.105-7.148,5.222-15.305,9.257
	c-6.512,3.207-10.816,7.239-12.926,12.192c-1.375-1.653-1.926-4.309-1.469-8.067c0.277-3.027,1.008-5.867,2.02-8.433
	c1.559-2.66,5.227-5.043,11.18-6.969C293.273,115.895,298.773,116.535,302.898,120.02"/>
<path fill-rule="evenodd" clip-rule="evenodd" fill="#FFFFFF" d="M375.77,120.383l13.746,1.652c1.559,0.824,4.219,1.192,7.793,1.192
	c0,1.375-1.098,2.75-3.207,4.308l-6.785,4.309l-12.555-0.918l-13.383-4.031C365.504,122.586,370.359,120.477,375.77,120.383"/>
<path fill-rule="evenodd" clip-rule="evenodd" fill="#FFFFFF" d="M295.566,140.184l-8.066,11.089l-2.289,5.038
	c-0.734,1.38-1.195,2.935-1.375,4.587c-1.926-1.102-3.391-3.484-4.586-7.242l-2.109-8.156c-0.273-2.84,2.383-6.324,7.883-10.543
	c4.309-3.113,9.352-5.953,15.125-8.613C300.973,130.102,299.418,134.777,295.566,140.184"/>
<path fill-rule="evenodd" clip-rule="evenodd" fill="#FFFFFF" d="M307.48,137.891c1.559-2.473,4.586-4.582,9.258-6.325l12.465-4.308
	c-1.008,4.129-3.02,7.609-5.863,10.543c-3.117,3.117-6.602,4.949-10.355,5.406c-1.195,0.457-2.297,0.094-3.484-1.098
	C308.492,140.918,307.758,139.543,307.48,137.891"/>
<path fill-rule="evenodd" clip-rule="evenodd" fill="#FFFFFF" d="M374.211,134.32c4.215,1.465,7.516,2.196,9.988,2.289
	c-3.48,4.493-8.613,6.692-15.305,6.508c-5.867-0.184-10.91-1.742-15.125-4.765c-1.738-0.641-4.305-1.286-7.605-1.743
	c3.574-5.961,9.531-7.793,17.688-5.683L374.211,134.32"/>
<path fill-rule="evenodd" clip-rule="evenodd" fill="#FFFFFF" d="M301.344,156.684l-3.945,8.797
	c-1.008,3.395-1.285,6.879-0.641,10.359l-2.84-1.098l-3.852-4.676c-3.391-4.492-2.75-10.176,1.742-17.051l5.867-8.43
	c2.473-3.305,4.031-5.961,4.676-8.07C305.191,142.75,304.824,149.441,301.344,156.684"/>
<path fill-rule="evenodd" clip-rule="evenodd" fill="#FFFFFF" d="M368.895,145.867c-1.191,2.199-2.934,3.664-5.316,4.309l-5.5,1.832
	c-5.867,1.559-11.184,1.465-15.949-0.367l-6.141-2.84l-6.965-2.293c6.598-6.965,13.379-8.617,20.254-5.039
	c1.559,0.09,4.402,1.008,8.617,2.656C361.652,145.594,365.32,146.141,368.895,145.867"/>
<path fill-rule="evenodd" clip-rule="evenodd" fill="#FFFFFF" d="M322.516,146.418l-2.934,3.297
	c-1.375,1.469-2.477,2.109-3.391,1.926l-3.117-5.133l6.508-1.559C322.422,143.207,323.43,143.758,322.516,146.418"/>
<path fill-rule="evenodd" clip-rule="evenodd" fill="#FFFFFF" d="M311.699,158.789c-0.09,2.016-0.824,4.859-2.016,8.527
	c-2.477,7.426-2.566,13.199-0.184,17.414c-3.484-0.457-6.324-2.656-8.617-6.508c-1.098-4.676-0.551-9.719,1.648-15.215l6.969-13.109
	C311.238,152.648,311.973,155.582,311.699,158.789"/>
<path fill-rule="evenodd" clip-rule="evenodd" fill="#FFFFFF" d="M346.531,156.684c-1.832,2.199-4.766,3.391-8.801,3.664
	c-4.035,0.367-7.883-0.363-11.641-2.289c-1.191-0.461-2.477-1.195-3.758-2.383c-0.918-0.828-1.559-1.285-2.016-1.195
	c1.191-4.121,5.316-5.316,12.191-3.391L346.531,156.684"/>
<path fill-rule="evenodd" clip-rule="evenodd" fill="#FFFFFF" d="M371.461,156.312c1.008,7.427-0.551,11.735-4.766,13.021
	c-7.793,0.273-14.574-2.199-20.441-7.609c2.844-1.648,6.969-2.477,12.375-2.383C363.852,159.434,368.16,158.426,371.461,156.312"/>
<path fill-rule="evenodd" clip-rule="evenodd" fill="#FFFFFF" d="M318.48,189.312c-3.48-2.104-5.684-4.397-6.508-7.058
	c-1.285-3.48-1.008-7.605,0.918-12.371c2.109-5.594,3.117-9.352,3.117-11.094c2.566,1.836,4.488,6.145,5.773,12.836
	c1.375,8.062,3.941,14.664,7.793,19.797C325.906,192.336,322.238,191.605,318.48,189.312"/>
<path fill-rule="evenodd" clip-rule="evenodd" fill="#FFFFFF" d="M336.906,191.238c-6.051-2.566-10.266-11.918-12.559-27.957
	c3.207,0.641,6.051,2.109,8.34,4.586c1.375,1.465,3.301,4.031,5.594,7.605c2.105,3.484,4.031,5.957,5.68,7.332
	c2.477,2.293,5.41,3.484,8.801,3.668c-1.652,2.016-4.031,3.48-7.242,4.398L336.906,191.238"/>
<path fill-rule="evenodd" clip-rule="evenodd" fill="#FFFFFF" d="M367.609,172.996c-1.738,5.5-5.133,8.801-9.988,9.992
	c-3.758,0.641-7.977-1.098-12.648-5.316c-4.219-3.941-7.148-8.246-8.801-12.922c3.023-1.012,6.875-0.094,11.367,2.566
	c5.223,3.023,9.348,4.492,12.465,4.492L367.609,172.996"/>
<polyline fill-rule="evenodd" clip-rule="evenodd" fill="#FFFFFF" points="303.082,197.012 304.09,187.391 311.699,190.504 
	303.082,197.012 "/>
<path fill-rule="evenodd" clip-rule="evenodd" fill="#FFFFFF" d="M314.629,207.094l-15.211,7.609c0-6.051,2.656-11.642,8.063-16.68
	c5.777-5.41,11.277-6.328,16.406-2.754C323.613,199.582,320.59,203.52,314.629,207.094"/>
<path fill-rule="evenodd" clip-rule="evenodd" fill="#FFFFFF" d="M320.316,224.145c-2.84,0.824-6.512,1.281-10.816,1.281
	c-5.043,0.094-8.156-0.641-9.352-2.105c0.457-4.309,7.977-9.715,22.551-16.227c-0.367,1.468-0.645,4.309-0.734,8.527
	C321.871,219.102,321.324,221.945,320.316,224.145"/>
<path fill-rule="evenodd" clip-rule="evenodd" fill="#FFFFFF" d="M312.34,232.211c-1.559-0.461-4.035-1.559-7.332-3.484l6.965,1.742
	l7.793,0.184C317.383,232.211,314.906,232.758,312.34,232.211"/>
<path fill-rule="evenodd" clip-rule="evenodd" fill="#FFFFFF" d="M298.684,239.359c-1.559,2.383-1.559,4.949-0.184,7.793
	c1.559,2.84,3.852,3.758,6.875,2.746c-0.367-1.922-1.469-3.664-3.395-5.223C300.242,243.117,299.141,241.379,298.684,239.359"/>
<path fill-rule="evenodd" clip-rule="evenodd" fill="#FFFFFF" d="M316.191,240.461l-6.234,0.367c-2.383,0-4.309-0.367-5.684-1.008
	c0.461,3.941,1.285,6.688,2.477,8.34c2.105,3.297,5.773,4.582,10.813,3.848c2.477-2.199,3.578-4.492,3.211-6.875
	c-0.277-0.457-1.285-1.008-3.211-1.832C316.191,242.566,315.73,241.652,316.191,240.461"/>
<path fill-rule="evenodd" clip-rule="evenodd" fill="#FFFFFF" d="M321.965,234.867c-5.227,1.832-12.742,1.194-22.367-1.832
	c4.492,2.75,8.707,4.125,12.648,4.125C315.273,237.16,318.48,236.426,321.965,234.867"/>
<path fill-rule="evenodd" clip-rule="evenodd" fill="#FFFFFF" d="M373.66,76.937c-2.656-1.558-5.406-5.222-8.25-11.089
	c-2.746-5.774-6.414-9.993-10.996-12.559c2.563-0.824,5.406-1.375,8.43-1.559c3.578-0.089,6.234,0.551,7.883,1.926
	c2.477,2.844,3.758,6.602,3.852,11.184L373.66,76.937"/>
<path fill-rule="evenodd" clip-rule="evenodd" fill="#FFFFFF" d="M366.512,72.723c-4.859,2.656-9.992,1.742-15.402-2.567
	l-6.504-5.683c-2.566-2.106-4.949-3.391-7.152-3.852c3.211-2.289,7.703-3.297,13.477-2.934c3.391,0.735,6.418,2.75,9.164,5.961
	L366.512,72.723"/>
<path fill-rule="evenodd" clip-rule="evenodd" fill="#FFFFFF" d="M371.094,151.457c0.457,0.918-0.09,1.836-1.469,2.75
	c-1.281,0.824-2.563,1.469-3.941,1.742l-10.082,0.362L371.094,151.457"/>
<path fill-rule="evenodd" clip-rule="evenodd" fill="#FFFFFF" d="M296.113,92.887c2.203-1.559,3.945-2.11,5.316-1.649l1.652,0.824
	l1.375,1.192l4.582,3.484c-1.559-1.375-3.023-2.203-4.398-2.476L296.113,92.887"/>
<path fill-rule="evenodd" clip-rule="evenodd" fill="#FFFFFF" d="M358.078,122.859c-1.375,1.653-4.582,3.852-9.625,6.692
	l-7.699,5.043c5.957-8.25,10.449-15.86,13.477-22.918C356.613,116.719,357.895,120.383,358.078,122.859"/>
<path fill-rule="evenodd" clip-rule="evenodd" fill="#FFFFFF" d="M251.293,202.422l-11.547-4.676
	c5.043-5.039,12.098-6.691,21.355-5.133c2.66,0.457,6.691,1.559,12.098,3.117l12.012,3.206c-5.316,6.692-12.559,9.075-21.816,7.333
	C260.004,205.629,255.969,204.348,251.293,202.422"/>
<path fill-rule="evenodd" clip-rule="evenodd" fill="#FFFFFF" d="M300.883,186.84c-5.406,5.773-11.918,8.156-19.34,6.965
	l-10.906-2.934l-12.285-3.48c4.125-3.941,10.359-5.5,18.789-4.586L300.883,186.84"/>
<path fill-rule="evenodd" clip-rule="evenodd" fill="#FFFFFF" d="M288.508,180.422l-16.863-2.289
	c3.207-4.129,6.965-6.602,11.457-7.426c0.914-0.094,2.934,1.375,6.141,4.398c3.941,3.852,8.156,6.598,12.648,8.25L288.508,180.422"
	/>
<path fill-rule="evenodd" clip-rule="evenodd" fill="#FFFFFF" d="M59.359,207.828c-1.558-5.039-2.203-10.633-1.742-16.957
	l2.199-16.773c1.559,1.191,3.301,3.391,5.043,6.781l3.301,6.328c1.738,3.574,3.207,9.164,4.399,16.68
	c1.464,8.066,2.839,13.75,4.031,16.957c-3.758,0-7.242-1.375-10.633-4.032C62.75,214.152,60.551,211.129,59.359,207.828"/>
<path fill-rule="evenodd" clip-rule="evenodd" fill="#FFFFFF" d="M53.586,205.812l-9.078-8.522
	c-3.207-3.853-4.856-7.978-4.766-12.375c0.735-5.043,2.477-10.086,5.317-15.309l8.617-13.656c2.566,4.676,3.117,11.641,1.742,20.715
	c-1.652,10.906-2.109,18.332-1.375,22.367L53.586,205.812"/>
<path fill-rule="evenodd" clip-rule="evenodd" fill="#FFFFFF" d="M40.66,150.359l12.281-7.699c-0.367,4.672-3.39,11.547-8.98,20.621
	c-5.227,8.25-7.609,15.309-7.152,21.176c-3.207-2.66-5.59-6.785-7.149-12.559c-1.558-5.684-1.465-9.535,0.184-11.551
	C32.594,156.406,36.168,153.109,40.66,150.359"/>
<path fill-rule="evenodd" clip-rule="evenodd" fill="#FFFFFF" d="M23.887,137.25l3.664-9.168c1.558-3.207,3.394-5.496,5.594-6.781
	c3.574-2.016,8.066-3.391,13.382-4.125l16.223-1.465c-4.766,5.59-11.547,10.266-20.258,14.117L23.887,137.25"/>
<path fill-rule="evenodd" clip-rule="evenodd" fill="#FFFFFF" d="M42.309,133.309c4.859-2.293,9.625-4.125,14.3-5.317
	c-1.285,5.41-5.683,10.817-13.109,16.223c-10.082,7.336-16.223,12.375-18.422,15.031c-2.844-7.973-1.836-14.387,2.84-19.062
	L42.309,133.309"/>
</svg>
